<?xml version="1.0" encoding="UTF-8" standalone="no"?>
<svg
   width="5.5609999"
   height="6.368"
   version="1.1"
   viewBox="-237.351 461.569 7.6462087 8.7556275"
   id="svg1"
   sodipodi:docname="pez.svg"
   inkscape:version="1.3 (0e150ed, 2023-07-21)"
   inkscape:export-filename="pez.svg"
   inkscape:export-xdpi="96"
   inkscape:export-ydpi="96"
   xmlns:inkscape="http://www.inkscape.org/namespaces/inkscape"
   xmlns:sodipodi="http://sodipodi.sourceforge.net/DTD/sodipodi-0.dtd"
   xmlns="http://www.w3.org/2000/svg"
   xmlns:svg="http://www.w3.org/2000/svg"
   xmlns:rdf="http://www.w3.org/1999/02/22-rdf-syntax-ns#"
   xmlns:cc="http://creativecommons.org/ns#"
   xmlns:dc="http://purl.org/dc/elements/1.1/">
  <sodipodi:namedview
     id="namedview1"
     pagecolor="#ffffff"
     bordercolor="#000000"
     borderopacity="0.25"
     inkscape:showpageshadow="2"
     inkscape:pageopacity="0.0"
     inkscape:pagecheckerboard="0"
     inkscape:deskcolor="#d1d1d1"
     inkscape:document-units="cm"
     inkscape:zoom="62.655453"
     inkscape:cx="2.162621"
     inkscape:cy="2.8409339"
     inkscape:window-width="1392"
     inkscape:window-height="1027"
     inkscape:window-x="0"
     inkscape:window-y="25"
     inkscape:window-maximized="0"
     inkscape:current-layer="Nueva_capa_8"
     showguides="false" />
  <!--
	Exported with Concepts: Smarter Sketching
	Version: 2024.04.6 on Android 13
	https://concepts.app/
	-->
  <title
     id="title1">Dibujo 3</title>
  <desc
     id="desc1">Drawing exported from Concepts: Smarter Sketching</desc>
  <defs
     id="defs1" />
  <g
     id="Nueva_capa_8"
     opacity="1"
     transform="matrix(0.04971119,0,0,0.04971119,-225.84726,438.37698)"
     style="fill:none;stroke:#073254;stroke-width:5.22693;stroke-dasharray:none;stroke-opacity:1">
    <path
       id="path1"
       style="fill:#073254;fill-opacity:1;stroke:#073254;stroke-width:5.22693;stroke-dasharray:none;stroke-opacity:1"
       d="m -221.40803,468.84912 c -1.01595,0.53146 -1.87033,1.16386 -2.64707,1.83674 -2.10765,1.13271 -3.812,3.28159 -4.80794,6.91479 l 1.08044,-1.2425 c -3.04126,8.9308 1.71073,21.87733 3.13326,30.19819 10.82057,42.3181 38.13455,78.03016 68.66172,108.25971 13.3791,11.0136 28.26866,26.34499 46.94496,25.17416 12.113845,-6.44136 6.64798,-22.72316 1.99881,-32.35906 11.910462,-13.30797 23.185984,-28.44615 25.228172,-47.053 5.329794,-27.07079 -2.668327,-57.88489 -25.120132,-74.98227 -24.98079,-10.80125 -57.18916,-18.47624 -80.65456,0.16206 -0.78993,0.85777 -1.56151,1.50247 -2.32294,2.05283 l 21.87883,-10.58827 c -0.0808,0.67567 -0.11835,1.32997 -0.16206,1.9988 -0.0437,0.66884 -0.0458,1.33666 -0.054,1.99881 -0.008,0.66215 -0.0258,1.34318 0,1.99881 0.0258,0.65562 0.0498,1.29554 0.10805,1.94478 0.0582,0.64925 0.12692,1.30177 0.21608,1.94479 0.0892,0.64302 0.20559,1.25382 0.32414,1.89076 0.11854,0.63695 0.28578,1.25974 0.43217,1.89076 0.14639,0.63103 0.25948,1.26551 0.43217,1.89077 0.3454,1.25051 0.74706,2.49915 1.18848,3.7275 0.44143,1.22836 0.93343,2.46607 1.45859,3.67349 0.52516,1.20741 1.07807,2.37774 1.67468,3.56544 0.59661,1.18769 1.23498,2.39624 1.89076,3.56544 0.65578,1.16919 1.35017,2.30548 2.05283,3.45739 0.70266,1.15192 1.42362,2.32154 2.16087,3.4574 1.47451,2.27171 2.99867,4.48391 4.53784,6.6987 1.53916,2.21479 3.08631,4.42303 4.59185,6.59066 1.50554,2.16763 3.00213,4.29837 4.37577,6.4286 2.00913,2.37808 3.9537,4.79812 5.88837,7.23892 1.93468,2.4408 3.82572,4.93388 5.72632,7.40099 1.9006,2.4671 3.81939,4.88997 5.72631,7.34697 1.90691,2.45699 3.82671,4.93649 5.78033,7.34696 0.97681,1.20524 1.97514,2.37866 2.9712,3.56544 0.99606,1.18678 2.00486,2.40167 3.02522,3.56544 1.02036,1.16377 2.02954,2.26717 3.07925,3.40337 1.0497,1.13621 2.10318,2.29928 3.18728,3.40338 1.08411,1.10409 2.22581,2.17388 3.34936,3.24131 1.12355,1.06743 2.23532,2.10705 3.40336,3.13326 1.168043,1.02622 2.347852,2.04478 3.565439,3.02522 1.217587,0.98045 2.455327,1.93303 3.727505,2.86316 l -11.506634,13.72154 c -1.12319,-0.54856 -2.19683,-1.13974 -3.29533,-1.7287 -1.0985,-0.58895 -2.2203,-1.21006 -3.29533,-1.83674 -1.07503,-0.62668 -2.13452,-1.22902 -3.18729,-1.89076 -1.05277,-0.66175 -2.10154,-1.35869 -3.13326,-2.05283 -1.03173,-0.69415 -2.01333,-1.38297 -3.02523,-2.10685 -1.01189,-0.72389 -2.03194,-1.46393 -3.02522,-2.2149 -0.99327,-0.75096 -1.99532,-1.54756 -2.9712,-2.32293 -0.97587,-0.77538 -1.95749,-1.57984 -2.91717,-2.37696 -1.91937,-1.59426 -3.7564,-3.19668 -5.61827,-4.86197 -1.86188,-1.66529 -3.69613,-3.36303 -5.51023,-5.07805 -1.8141,-1.71502 -3.62615,-3.44264 -5.40218,-5.18609 -1.77603,-1.74345 -3.54647,-3.48953 -5.29414,-5.24012 -2.13395,-2.93743 -4.29577,-5.88964 -6.48261,-8.85957 -2.18685,-2.96994 -4.37464,-5.99991 -6.53664,-9.02165 -1.081,-1.51086 -2.1811,-3.01039 -3.24131,-4.53783 -1.06022,-1.52743 -2.10356,-3.04543 -3.13327,-4.59185 -1.02971,-1.54642 -2.03573,-3.13209 -3.02522,-4.6999 -0.98949,-1.56781 -1.97762,-3.10828 -2.91718,-4.6999 -0.93955,-1.59162 -1.82118,-3.24412 -2.70109,-4.86196 -0.8799,-1.61784 -1.72848,-3.21549 -2.53902,-4.86196 -0.81054,-1.64647 -1.59149,-3.2925 -2.32294,-4.97001 -0.73145,-1.67751 -1.41018,-3.36708 -2.05283,-5.07805 -0.64265,-1.71097 -1.23858,-3.43925 -1.78272,-5.18609 -0.27207,-0.87342 -0.56471,-1.76423 -0.81033,-2.64707 -0.24561,-0.88284 -0.48433,-1.80853 -0.70228,-2.70109 -0.21795,-0.89256 -0.40517,-1.74449 -0.59424,-2.64707 -0.18907,-0.90259 -0.38124,-1.84221 -0.54022,-2.75511 -0.15897,-0.91291 -0.25048,-1.83158 -0.37815,-2.75512 -0.1203,-0.87021 -0.2867,-1.71314 -0.37815,-2.59304 -6.5264,2.90079 -11.78873,-4.56313 -14.53187,-11.39861 -4.1164,-4.97984 -10.9071,-8.84739 -16.15252,-7.45501 z" />
  </g>
  <metadata
     id="metadata1">
    <rdf:RDF>
      <cc:Work
         rdf:about="">
        <dc:title>Dibujo 3</dc:title>
      </cc:Work>
    </rdf:RDF>
  </metadata>
</svg>
