<?xml version="1.0" encoding="UTF-8" standalone="yes"?>
<svg xmlns="http://www.w3.org/2000/svg" xmlns:xlink="http://www.w3.org/1999/xlink" width="8.797cm" height="10.206cm" version="1.1" viewBox="-237.351 461.569 457.157 530.368">
  <!--
	Exported with Concepts: Smarter Sketching
	Version: 2024.04.6 on Android 13
	https://concepts.app/
	-->
  <title>Dibujo 3</title>
  <desc>Drawing exported from Concepts: Smarter Sketching</desc>
  <defs></defs>
  <g id="Nueva_capa_8" opacity="1.000">
    <path id="STROKE_f036875a-5823-4d2e-b7cf-b36fe2830806" opacity="1.000" fill="none" stroke="#073254" stroke-width="5.000" stroke-opacity="1.000" stroke-linecap="round" stroke-linejoin="round" d="M -226.445 941.346 L -226.292 940.887 L -226.403 939.980 L -226.525 937.997 Q -226.584 937.813 -227.060 928.181 Q -227.537 918.550 -227.519 910.193 Q -227.500 901.837 -227.425 897.069 Q -227.350 892.302 -227.267 887.255 Q -227.184 882.208 -226.908 876.179 Q -226.632 870.150 -226.157 860.996 Q -225.681 851.841 -225.248 846.110 Q -224.815 840.378 -224.647 837.627 Q -224.480 834.875 -224.252 831.999 Q -224.024 829.123 -223.762 821.971 Q -223.500 814.819 -223.449 801.613 Q -223.397 788.407 -223.224 781.283 Q -223.051 774.159 -222.877 771.301 Q -222.703 768.443 -222.652 765.529 Q -222.601 762.615 -222.455 758.229 Q -222.310 753.843 -222.203 749.388 Q -222.096 744.932 -222.121 740.709 Q -222.146 736.486 -222.518 727.944 Q -222.889 719.401 -223.204 714.135 Q -223.519 708.868 -223.556 706.432 Q -223.592 703.996 -223.696 700.342 Q -223.799 696.687 -223.850 686.272 Q -223.900 675.857 -223.762 670.228 Q -223.624 664.598 -223.513 661.624 Q -223.402 658.649 -223.312 653.900 Q -223.221 649.150 -223.073 645.448 Q -222.926 641.746 -222.760 636.313 Q -222.595 630.880 -222.440 627.188 Q -222.285 623.497 -222.164 621.879 Q -222.043 620.260 -221.963 618.354 Q -221.884 616.448 -221.798 613.917 Q -221.711 611.387 -221.699 610.858 Q -221.687 610.329 -221.508 607.460 Q -221.330 604.590 -221.032 599.975 Q -220.735 595.360 -220.484 592.078 Q -220.233 588.796 -220.034 585.658 Q -219.835 582.520 -219.593 579.793 Q -219.352 577.066 -219.163 575.244 Q -218.974 573.422 -218.764 571.340 Q -218.553 569.258 -218.537 569.211 Q -218.521 569.165 -217.653 563.565 Q -216.785 557.965 -214.322 553.103 L -214.104 552.954 Q -213.844 552.828 -213.296 552.785 Q -212.748 552.743 -211.267 553.114 Q -209.787 553.485 -209.424 553.660 Q -209.061 553.835 -208.792 553.939 Q -208.524 554.043 -206.340 555.637 Q -204.155 557.231 -203.150 558.174 Q -202.144 559.118 -201.091 560.081 Q -200.038 561.044 -199.872 561.223 Q -199.705 561.402 -196.807 564.167 Q -193.909 566.932 -191.851 568.816 Q -189.794 570.700 -187.554 572.670 Q -185.313 574.640 -181.982 577.586 Q -178.650 580.533 -176.980 582.003 Q -175.310 583.473 -174.182 584.510 Q -173.053 585.548 -170.910 587.464 Q -168.766 589.379 -167.120 591.061 Q -165.475 592.743 -164.386 593.766 Q -163.297 594.788 -162.402 595.694 Q -161.506 596.600 -160.227 597.934 Q -158.947 599.268 -158.174 600.106 Q -157.402 600.944 -157.134 601.216 Q -156.867 601.488 -153.930 604.687 Q -150.992 607.885 -149.949 609.031 Q -148.905 610.177 -148.256 610.853 Q -147.607 611.529 -146.039 613.045 "></path>
    <path id="STROKE_5845ee7f-9b07-423a-bc15-4d2dc0e48a67" opacity="1.000" fill="none" stroke="#073254" stroke-width="5.000" stroke-opacity="1.000" stroke-linecap="round" stroke-linejoin="round" d="M -146.466 612.689 L -145.631 611.345 Q -144.899 608.845 -144.629 608.328 Q -144.360 607.811 -143.054 603.350 Q -141.748 598.888 -141.125 596.261 Q -140.502 593.634 -140.275 592.538 Q -140.049 591.442 -139.955 591.066 Q -139.862 590.690 -138.614 585.958 Q -137.366 581.226 -136.950 579.382 Q -136.534 577.538 -136.079 575.770 Q -135.624 574.003 -135.440 573.387 Q -135.256 572.771 -134.890 571.473 Q -134.524 570.176 -134.013 567.963 Q -133.502 565.750 -133.341 565.083 Q -133.179 564.416 -133.127 564.303 Q -133.075 564.191 -131.910 559.456 Q -130.746 554.721 -129.791 549.862 Q -128.836 545.003 -128.189 541.699 Q -127.542 538.396 -127.255 536.861 Q -126.969 535.327 -126.249 532.213 Q -125.528 529.098 -124.548 523.943 Q -123.568 518.787 -122.986 515.811 Q -122.403 512.834 -122.032 510.951 Q -121.662 509.067 -121.448 508.247 Q -121.235 507.427 -120.049 501.535 Q -118.864 495.643 -117.850 491.309 Q -116.837 486.975 -115.476 482.665 Q -114.116 478.356 -113.648 477.309 Q -113.180 476.262 -112.556 475.169 Q -111.933 474.077 -110.937 472.997 Q -109.941 471.918 -109.765 471.812 Q -109.590 471.706 -107.989 471.494 Q -106.387 471.283 -105.286 471.494 Q -104.184 471.706 -102.252 472.496 Q -100.321 473.286 -98.434 474.317 Q -96.547 475.348 -94.453 476.604 Q -92.359 477.859 -90.430 479.123 Q -88.501 480.387 -85.221 482.698 Q -81.940 485.009 -79.871 486.533 Q -77.803 488.057 -77.073 488.573 Q -76.343 489.089 -74.403 490.464 Q -72.463 491.840 -71.392 492.643 Q -70.322 493.445 -68.716 494.785 Q -67.111 496.125 -65.990 497.207 "></path>
    <path id="STROKE_cf5ea60e-b6f3-4f84-8d11-566b49657498" opacity="1.000" fill="none" stroke="#073254" stroke-width="5.000" stroke-opacity="1.000" stroke-linecap="round" stroke-linejoin="round" d="M -56.537 486.249 L -56.872 486.286 Q -57.790 486.726 -57.992 486.818 Q -58.194 486.910 -58.782 487.261 Q -59.369 487.613 -59.779 487.921 Q -60.189 488.229 -60.363 488.402 Q -60.537 488.576 -61.152 489.356 Q -62.108 491.039 -62.336 491.605 Q -62.564 492.172 -62.671 492.525 Q -62.777 492.879 -63.072 494.478 Q -63.366 496.077 -63.459 497.033 Q -63.552 497.990 -63.620 499.587 Q -63.687 501.183 -63.616 503.196 Q -63.545 505.209 -63.383 506.444 Q -63.222 507.679 -63.053 508.748 Q -62.885 509.818 -62.592 511.628 Q -62.300 513.438 -61.724 516.217 Q -61.148 518.995 -60.825 520.276 Q -60.501 521.557 -60.279 522.304 Q -60.058 523.051 -59.815 523.918 Q -59.571 524.786 -58.949 526.566 Q -58.326 528.347 -57.011 532.401 Q -55.696 536.454 -55.068 538.538 Q -54.440 540.623 -54.164 541.568 Q -53.887 542.512 -52.725 545.377 Q -51.563 548.242 -50.732 550.154 Q -49.900 552.065 -49.423 553.264 Q -48.946 554.462 -47.359 557.972 Q -45.772 561.483 -44.588 563.686 Q -43.404 565.890 -41.483 569.094 Q -39.562 572.298 -39.111 572.955 Q -38.660 573.611 -38.220 574.262 Q -37.781 574.912 -35.920 577.750 Q -34.060 580.588 -33.115 581.981 Q -32.170 583.374 -31.219 584.742 Q -30.268 586.111 -30.147 586.279 Q -30.027 586.447 -29.807 586.792 Q -29.588 587.138 -27.642 589.916 Q -25.697 592.694 -24.552 594.193 Q -23.406 595.692 -22.803 596.491 Q -22.200 597.290 -21.770 597.875 Q -21.339 598.459 -20.300 599.869 Q -19.261 601.278 -18.747 601.960 Q -18.233 602.642 -16.835 604.273 Q -15.437 605.904 -14.742 606.680 Q -14.047 607.456 -13.650 607.879 Q -13.254 608.302 -12.089 609.574 Q -10.924 610.846 -10.200 611.690 Q -9.476 612.534 -8.259 613.957 Q -7.042 615.380 -6.246 616.341 Q -5.450 617.301 -4.898 617.956 Q -4.345 618.612 -3.051 620.140 Q -1.757 621.667 -1.129 622.395 Q -0.501 623.123 0.697 624.400 Q 1.895 625.677 2.426 626.206 Q 2.958 626.736 3.715 627.494 Q 4.471 628.252 5.519 629.231 Q 6.566 630.210 6.829 630.436 Q 7.093 630.663 8.850 632.208 Q 10.607 633.754 12.232 635.130 Q 13.857 636.507 14.776 637.274 Q 15.695 638.041 17.230 639.344 Q 18.764 640.647 20.028 641.708 Q 21.292 642.768 21.989 643.341 Q 22.685 643.915 23.092 644.236 Q 23.498 644.558 24.169 645.101 Q 24.839 645.643 26.752 646.914 Q 28.666 648.184 29.694 648.802 Q 30.722 649.421 31.301 649.809 Q 31.881 650.197 32.172 650.362 Q 32.462 650.527 32.542 650.596 Q 32.623 650.665 34.216 651.568 Q 35.810 652.472 37.211 653.120 Q 38.612 653.767 39.465 654.172 Q 40.318 654.576 41.505 655.035 Q 42.691 655.495 43.265 655.718 Q 43.838 655.941 44.379 656.124 Q 44.919 656.307 45.031 656.334 Q 45.142 656.361 45.917 656.611 Q 46.693 656.861 47.485 657.064 Q 48.277 657.267 48.466 657.300 Q 48.656 657.333 50.475 657.592 Q 52.295 657.851 53.087 657.828 Q 53.879 657.805 54.259 657.751 Q 54.639 657.697 54.731 657.701 Q 54.824 657.704 55.800 657.372 Q 56.777 657.039 57.371 656.722 Q 57.965 656.405 59.030 655.367 Q 60.096 654.329 60.472 653.761 Q 60.848 653.193 60.983 652.938 Q 61.118 652.683 61.443 652.016 Q 61.768 651.349 62.032 650.614 Q 62.295 649.879 62.465 649.151 Q 62.635 648.424 62.716 648.063 Q 62.797 647.702 62.927 646.626 Q 63.057 645.550 63.086 645.020 Q 63.114 644.489 63.057 642.502 Q 63.000 640.515 62.906 639.720 Q 62.812 638.925 62.638 637.968 Q 62.464 637.010 62.128 635.777 Q 61.791 634.543 61.238 633.152 Q 60.685 631.761 60.519 631.421 Q 60.354 631.080 60.257 630.869 Q 60.161 630.657 59.749 629.892 Q 59.336 629.128 58.826 628.137 Q 58.316 627.146 58.171 626.835 Q 58.026 626.523 57.802 625.717 L 57.812 624.984 Q 58.331 623.315 59.605 621.569 Q 60.879 619.823 62.139 618.563 Q 63.398 617.304 64.538 616.264 Q 65.677 615.223 66.520 614.361 Q 67.363 613.500 68.134 612.685 Q 68.906 611.870 69.873 610.593 Q 70.840 609.315 71.607 608.196 Q 72.374 607.076 72.593 606.697 Q 72.812 606.317 72.983 605.982 Q 73.154 605.648 73.562 604.935 Q 73.970 604.223 75.020 602.356 Q 76.069 600.488 77.187 597.867 Q 78.305 595.245 78.806 593.857 Q 79.308 592.469 79.570 591.605 Q 79.832 590.741 80.300 589.302 Q 80.768 587.864 80.800 587.802 Q 80.831 587.740 81.241 586.089 Q 81.650 584.439 82.138 582.283 Q 82.627 580.127 83.050 577.943 Q 83.472 575.759 83.698 573.823 Q 83.924 571.887 84.030 570.134 Q 84.136 568.380 84.157 567.699 Q 84.178 567.018 84.319 565.042 Q 84.460 563.065 84.456 559.600 Q 84.452 556.135 84.269 553.786 Q 84.086 551.438 83.897 549.902 Q 83.708 548.367 83.450 546.786 Q 83.193 545.205 82.906 543.482 Q 82.620 541.760 82.078 539.675 Q 81.536 537.589 80.837 535.525 Q 80.137 533.460 79.552 531.988 Q 78.968 530.517 77.443 527.692 Q 75.918 524.867 75.084 523.372 Q 74.249 521.877 73.006 519.985 Q 71.762 518.093 71.059 517.148 Q 70.356 516.202 70.238 516.026 Q 70.119 515.851 69.403 514.876 Q 68.687 513.901 67.411 512.141 Q 66.135 510.381 65.662 509.754 Q 65.189 509.126 64.475 508.322 Q 63.762 507.517 63.069 506.898 Q 62.375 506.280 61.551 505.596 Q 60.726 504.911 59.935 504.314 Q 59.144 503.716 57.889 502.945 Q 56.633 502.175 55.063 501.414 Q 53.493 500.654 51.032 499.860 Q 48.571 499.066 46.805 498.477 Q 45.039 497.888 43.385 497.414 Q 41.731 496.941 38.220 495.991 Q 34.709 495.042 33.676 494.807 Q 32.642 494.573 30.983 494.200 Q 29.324 493.826 28.070 493.607 Q 26.816 493.387 24.927 493.112 Q 23.039 492.836 21.014 492.598 Q 18.989 492.359 17.057 492.100 Q 15.126 491.841 13.320 491.712 Q 11.514 491.583 11.152 491.547 Q 10.790 491.512 8.830 491.499 Q 6.871 491.487 4.966 491.725 Q 3.061 491.964 1.295 492.331 Q -0.471 492.699 -2.950 493.434 Q -5.430 494.168 -6.321 494.510 Q -7.213 494.852 -7.278 494.863 Q -7.343 494.874 -9.778 495.926 Q -12.213 496.977 -14.666 498.280 Q -17.119 499.583 -18.242 500.214 Q -19.366 500.844 -20.297 501.484 Q -21.228 502.123 -21.716 502.457 Q -22.204 502.790 -22.735 503.122 Q -23.266 503.454 -24.016 503.935 Q -24.766 504.417 -25.117 504.650 Q -25.468 504.884 -26.101 505.259 Q -26.734 505.634 -27.306 505.925 Q -27.877 506.216 -28.280 506.407 Q -28.682 506.597 -29.941 506.926 Q -31.199 507.255 -31.725 507.265 L -32.197 507.208 L -32.911 506.853 Q -33.062 506.784 -33.479 506.481 Q -33.896 506.178 -34.236 505.871 Q -34.576 505.565 -34.844 505.243 Q -35.112 504.921 -35.140 504.906 Q -35.168 504.890 -36.230 503.198 Q -37.292 501.507 -37.747 500.625 Q -38.203 499.742 -38.605 499.016 Q -39.007 498.289 -39.276 497.792 Q -39.545 497.294 -40.189 496.363 Q -40.832 495.431 -41.364 494.798 Q -41.896 494.164 -42.807 493.255 Q -43.719 492.347 -44.018 492.072 Q -44.316 491.798 -45.602 490.903 Q -46.887 490.008 -48.416 489.182 Q -49.944 488.355 -50.781 488.032 Q -51.617 487.709 -52.454 487.440 Q -53.290 487.170 -53.531 487.099 Q -53.772 487.028 -54.332 486.945 Q -54.891 486.861 -55.227 486.804 Q -55.563 486.747 -56.399 486.835 Q -57.234 486.924 -58.276 487.379 Q -59.319 487.833 -59.621 488.053 Q -59.923 488.273 -60.271 488.604 Q -60.618 488.935 -60.821 489.188 Q -61.024 489.442 -61.302 489.924 Q -61.580 490.406 -61.832 490.858 Q -62.083 491.310 -62.434 492.000 Q -62.786 492.690 -63.022 493.194 Q -63.258 493.698 -63.403 493.948 Q -63.548 494.198 -64.032 494.982 "></path>
    <path id="STROKE_c75a998b-852c-4d82-9247-08ead809d9c7" opacity="1.000" fill="none" stroke="#073254" stroke-width="5.000" stroke-opacity="1.000" stroke-linecap="round" stroke-linejoin="round" d="M -31.200 509.152 L -30.855 509.649 L -30.843 510.221 Q -30.761 511.227 -30.655 512.110 Q -30.548 512.993 -30.142 515.268 Q -29.737 517.544 -29.401 519.104 Q -29.065 520.663 -28.588 522.681 Q -28.111 524.698 -27.449 526.947 Q -26.787 529.195 -26.490 530.069 Q -26.193 530.943 -25.905 531.709 Q -25.616 532.475 -24.627 534.635 Q -23.638 536.795 -22.772 538.656 Q -21.907 540.516 -19.888 544.223 Q -17.869 547.930 -16.708 549.893 Q -15.547 551.856 -14.580 553.162 Q -13.613 554.467 -11.889 556.935 Q -10.166 559.402 -9.330 560.620 Q -8.494 561.838 -7.312 563.737 Q -6.130 565.637 -4.381 568.464 Q -2.631 571.290 -1.107 573.587 Q 0.418 575.883 2.128 578.200 Q 3.839 580.518 4.370 581.164 Q 4.901 581.810 5.358 582.432 Q 5.815 583.055 7.026 584.525 Q 8.237 585.994 8.924 586.785 Q 9.611 587.576 10.167 588.213 Q 10.724 588.851 11.535 589.728 Q 12.346 590.605 13.025 591.242 Q 13.704 591.880 14.929 593.119 Q 16.154 594.359 17.528 595.578 Q 18.903 596.797 19.827 597.527 Q 20.750 598.257 20.794 598.284 Q 20.837 598.311 22.409 599.513 Q 23.981 600.715 25.216 601.801 Q 26.452 602.886 28.834 605.104 Q 31.215 607.322 32.407 608.424 Q 33.599 609.525 34.461 610.327 Q 35.323 611.130 36.326 611.930 Q 37.329 612.730 38.416 613.520 Q 39.502 614.309 44.016 617.034 Q 48.531 619.760 50.217 620.711 Q 51.904 621.663 52.616 622.037 Q 53.328 622.410 54.298 622.948 L 55.610 623.684 "></path>
    <path id="STROKE_2f176dd3-9044-4bf3-948d-bd77f5fd740e" opacity="1.000" fill="none" stroke="#073254" stroke-width="5.000" stroke-opacity="1.000" stroke-linecap="round" stroke-linejoin="round" d="M -7.533 497.707 Q -7.802 498.089 -7.894 498.503 Q -7.986 498.917 -8.070 500.011 Q -8.155 501.105 -8.190 502.426 Q -8.225 503.747 -8.192 504.356 Q -8.159 504.965 -8.001 505.870 Q -7.843 506.775 -7.324 509.117 Q -6.805 511.459 -6.449 512.901 Q -6.092 514.342 -5.394 516.102 Q -4.696 517.862 -3.998 519.407 Q -3.300 520.953 -2.895 521.777 Q -2.491 522.601 -1.666 524.095 Q -0.842 525.588 -0.440 526.369 Q -0.038 527.150 1.665 530.323 Q 3.367 533.495 5.030 536.128 Q 6.693 538.762 8.046 540.739 Q 9.398 542.716 10.813 544.702 Q 12.227 546.688 14.176 549.535 Q 16.125 552.381 17.654 554.453 Q 19.183 556.524 20.597 558.296 Q 22.011 560.068 22.754 560.994 Q 23.496 561.920 24.644 563.325 Q 25.791 564.730 26.715 565.832 Q 27.638 566.934 28.890 568.488 Q 30.143 570.041 31.349 571.528 Q 32.555 573.016 33.526 574.230 Q 34.496 575.444 36.565 578.059 Q 38.634 580.674 40.177 582.612 Q 41.720 584.550 43.107 586.483 Q 44.494 588.415 45.403 589.635 Q 46.312 590.855 46.946 591.618 Q 47.580 592.382 48.543 593.449 Q 49.506 594.515 50.114 595.132 Q 50.723 595.749 50.980 595.978 Q 51.237 596.207 53.294 598.090 Q 55.352 599.972 56.346 600.873 Q 57.340 601.774 57.832 602.185 Q 58.323 602.595 59.052 603.139 Q 59.781 603.683 60.436 604.210 Q 61.090 604.738 61.312 604.906 Q 61.534 605.074 62.185 605.607 Q 62.836 606.141 63.701 606.897 Q 64.566 607.654 66.478 609.355 L 67.126 609.974 "></path>
    <path id="STROKE_b014e09b-ec2f-497d-b468-c94278703079" opacity="1.000" fill="none" stroke="#073254" stroke-width="5.000" stroke-opacity="1.000" stroke-linecap="round" stroke-linejoin="round" d="M 64.293 646.373 L 65.341 647.022 Q 65.510 647.070 66.584 647.858 Q 67.657 648.646 67.720 648.680 Q 67.782 648.714 70.632 651.278 Q 73.482 653.843 75.755 655.821 Q 78.028 657.799 79.527 659.199 Q 81.026 660.599 82.474 662.050 Q 83.922 663.501 85.060 664.705 Q 86.198 665.908 87.821 667.722 Q 89.444 669.536 90.309 670.506 Q 91.174 671.477 94.713 675.609 Q 98.252 679.741 100.435 682.583 Q 102.618 685.425 103.892 687.281 Q 105.167 689.137 108.571 693.910 Q 111.974 698.682 114.490 702.170 Q 117.005 705.658 118.773 708.359 Q 120.541 711.060 122.399 714.136 Q 124.258 717.213 125.734 719.711 Q 127.211 722.208 128.852 725.086 Q 130.493 727.964 132.965 732.568 Q 135.438 737.172 137.054 740.357 Q 138.671 743.543 139.963 745.989 Q 141.255 748.434 143.170 752.090 Q 145.085 755.746 146.562 758.631 Q 148.039 761.516 149.716 764.848 Q 151.394 768.180 152.739 770.852 Q 154.084 773.524 155.603 776.543 Q 157.122 779.561 158.030 781.376 Q 158.939 783.191 160.112 785.709 Q 161.285 788.227 163.026 792.053 Q 164.766 795.879 165.918 798.493 Q 167.070 801.107 167.914 803.210 Q 168.758 805.314 169.439 807.114 Q 170.120 808.914 171.540 812.521 Q 172.961 816.127 173.785 818.211 Q 174.609 820.294 175.210 821.770 Q 175.810 823.245 176.232 824.336 Q 176.653 825.427 176.860 825.898 Q 177.067 826.369 177.559 827.654 Q 178.050 828.939 179.654 833.182 Q 181.258 837.425 182.100 839.287 Q 182.943 841.150 183.777 843.290 Q 184.610 845.430 185.715 848.469 Q 186.820 851.507 187.888 854.684 Q 188.955 857.860 189.985 861.174 Q 191.016 864.487 192.102 868.035 Q 193.189 871.582 194.332 875.362 Q 195.475 879.143 196.311 881.886 Q 197.147 884.629 197.677 886.335 Q 198.206 888.041 199.104 890.893 Q 200.001 893.745 201.267 897.744 Q 202.532 901.742 203.451 904.725 Q 204.370 907.707 205.228 910.657 Q 206.086 913.606 206.581 915.378 Q 207.077 917.149 207.435 918.751 Q 207.794 920.354 208.272 922.580 Q 208.750 924.807 209.019 926.168 Q 209.287 927.530 209.452 928.302 Q 209.616 929.074 209.703 929.404 Q 209.791 929.734 210.027 931.366 "></path>
    <path id="STROKE_c4bbf918-00de-42d1-8862-bcd8acf51a74" opacity="1.000" fill="none" stroke="#073254" stroke-width="5.000" stroke-opacity="1.000" stroke-linecap="round" stroke-linejoin="round" d="M 48.286 657.237 Q 48.361 657.464 48.515 657.512 Q 48.753 657.638 50.595 659.839 Q 52.437 662.041 55.391 666.838 Q 58.345 671.635 59.961 674.581 Q 61.576 677.527 62.244 678.859 Q 62.911 680.191 64.041 682.159 Q 65.170 684.127 66.971 687.145 Q 68.771 690.163 70.454 693.048 Q 72.138 695.934 73.711 698.700 Q 75.283 701.466 76.463 703.590 Q 77.644 705.714 78.437 707.208 Q 79.230 708.701 80.477 711.240 Q 81.724 713.779 83.422 717.356 Q 85.120 720.934 86.349 723.595 Q 87.577 726.256 88.338 728.006 Q 89.098 729.756 90.468 733.137 Q 91.838 736.519 93.817 741.531 Q 95.796 746.543 97.542 751.010 Q 99.288 755.477 100.801 759.398 Q 102.314 763.319 103.407 766.178 Q 104.500 769.037 105.172 770.833 Q 105.844 772.629 106.717 775.241 Q 107.591 777.852 108.666 781.279 Q 109.741 784.705 110.621 787.400 Q 111.500 790.095 112.524 793.039 Q 113.549 795.984 114.357 798.322 Q 115.166 800.660 115.785 802.385 Q 116.405 804.110 116.755 805.162 Q 117.104 806.214 117.686 808.105 Q 118.269 809.997 119.200 813.078 Q 120.131 816.159 120.905 818.920 Q 121.679 821.680 122.297 824.121 Q 122.914 826.561 123.968 830.615 Q 125.021 834.669 126.511 840.337 Q 128.002 846.005 129.125 850.306 Q 130.248 854.608 131.005 857.544 Q 131.762 860.480 132.295 862.537 Q 132.829 864.593 133.140 865.769 Q 133.450 866.945 134.266 870.343 Q 135.082 873.740 136.403 879.358 Q 137.725 884.976 138.707 889.321 Q 139.690 893.666 140.334 896.737 Q 140.978 899.809 141.570 902.780 Q 142.162 905.751 142.974 910.057 Q 143.785 914.364 144.177 916.633 Q 144.569 918.902 144.842 920.390 Q 145.115 921.877 145.594 925.648 Q 146.072 929.419 146.109 935.027 L 145.595 936.205 "></path>
    <path id="STROKE_5bd5890d-e249-4a17-9439-c2601e6d502f" opacity="1.000" fill="none" stroke="#073254" stroke-width="5.000" stroke-opacity="1.000" stroke-linecap="round" stroke-linejoin="round" d="M -226.954 939.568 Q -226.638 939.677 -226.162 940.419 Q -224.774 941.309 -221.192 943.367 Q -217.609 945.425 -214.186 947.218 Q -210.762 949.011 -207.597 950.417 Q -204.432 951.823 -201.871 952.998 Q -199.311 954.173 -196.242 955.430 Q -193.174 956.687 -191.160 957.469 Q -189.146 958.251 -185.804 959.408 Q -182.462 960.565 -180.422 961.236 Q -178.382 961.907 -175.677 962.823 Q -172.972 963.739 -165.199 965.850 Q -157.425 967.961 -149.585 969.567 Q -141.744 971.174 -136.585 972.209 Q -131.426 973.245 -126.234 974.388 Q -121.042 975.532 -113.645 976.654 Q -106.249 977.776 -98.054 978.931 Q -89.859 980.087 -84.738 980.529 Q -79.617 980.971 -70.164 981.577 Q -60.710 982.183 -58.007 982.105 Q -55.304 982.028 -49.833 982.036 Q -44.361 982.044 -40.717 981.978 Q -37.072 981.911 -35.671 981.892 Q -34.271 981.873 -29.417 981.802 Q -24.564 981.730 -18.765 981.799 Q -12.967 981.869 -9.244 981.807 Q -5.520 981.746 -3.164 981.803 Q -0.808 981.860 6.396 981.349 Q 13.601 980.839 17.130 980.517 Q 20.660 980.195 23.033 979.750 Q 25.406 979.305 33.737 977.788 Q 42.067 976.271 49.688 974.491 Q 57.309 972.710 60.969 971.770 Q 64.628 970.829 67.107 970.115 Q 69.586 969.400 72.419 968.533 Q 75.251 967.666 78.817 966.665 Q 82.383 965.663 86.899 964.129 Q 91.415 962.595 93.966 961.675 Q 96.517 960.754 98.429 960.016 Q 100.341 959.279 101.364 958.915 Q 102.387 958.551 102.597 958.503 Q 102.806 958.454 104.769 957.600 Q 106.733 956.746 108.453 955.970 Q 110.173 955.194 111.005 954.864 Q 111.838 954.534 112.729 954.230 Q 113.621 953.927 114.789 953.488 Q 115.958 953.050 116.775 952.707 Q 117.593 952.363 118.875 951.847 Q 120.156 951.330 122.907 950.296 Q 125.657 949.261 127.112 948.682 Q 128.568 948.102 128.924 947.965 Q 129.280 947.828 131.872 946.619 Q 134.465 945.409 137.643 943.533 Q 140.821 941.656 141.980 940.841 Q 143.139 940.026 143.972 939.366 Q 144.805 938.706 147.455 936.323 "></path>
    <path id="STROKE_aac7f9e2-8d71-479d-af91-39673444a60c" opacity="1.000" fill="none" stroke="#073254" stroke-width="5.000" stroke-opacity="1.000" stroke-linecap="round" stroke-linejoin="round" d="M 146.651 932.300 L 147.791 934.054 L 148.364 934.458 Q 150.736 936.222 151.445 936.769 Q 152.155 937.315 152.605 937.681 Q 153.056 938.046 154.398 938.706 Q 155.741 939.366 155.843 939.435 Q 155.944 939.504 159.410 940.580 Q 162.876 941.656 166.495 941.878 Q 170.115 942.100 172.018 941.967 Q 173.920 941.833 175.460 941.720 Q 177.001 941.606 178.204 941.467 Q 179.407 941.329 182.032 940.876 Q 184.656 940.424 185.602 940.285 Q 186.548 940.147 188.559 939.733 Q 190.571 939.319 193.284 938.623 Q 195.998 937.926 198.156 937.141 Q 200.315 936.357 201.767 935.713 Q 203.220 935.068 204.284 934.475 Q 205.348 933.882 205.826 933.576 Q 206.304 933.270 206.420 933.253 Q 206.536 933.236 209.008 931.532 "></path>
    <path id="STROKE_4f1655c8-a81f-4891-a5ba-6e9a494cfb20" opacity="1.000" fill="none" stroke="#073254" stroke-width="5.000" stroke-opacity="1.000" stroke-linecap="round" stroke-linejoin="round" d="M 71.582 686.500 L 71.791 686.500 Q 72.165 686.202 73.709 685.950 Q 75.252 685.699 83.747 683.289 L 84.482 683.101 "></path>
    <path id="STROKE_239ff924-c6fd-4c3b-8907-70b93af32949" opacity="1.000" fill="none" stroke="#073254" stroke-width="5.000" stroke-opacity="1.000" stroke-linecap="round" stroke-linejoin="round" d="M 84.630 717.330 Q 84.821 717.328 86.442 717.196 Q 88.063 717.064 89.958 716.699 Q 91.852 716.334 93.001 716.110 Q 94.151 715.886 110.141 714.508 Q 110.198 714.543 110.784 713.708 "></path>
    <path id="STROKE_ebb9eb6b-f410-458b-804a-d0daf950a96e" opacity="1.000" fill="none" stroke="#073254" stroke-width="5.000" stroke-opacity="1.000" stroke-linecap="round" stroke-linejoin="round" d="M 99.692 750.096 Q 99.827 750.128 100.974 750.414 Q 101.774 750.328 102.823 750.263 Q 103.872 750.198 104.112 750.178 Q 104.352 750.158 108.060 750.109 Q 111.768 750.061 122.227 750.075 L 123.758 750.009 "></path>
    <path id="STROKE_9be3ac6c-9fd3-4ddb-9412-845618529eb2" opacity="1.000" fill="none" stroke="#073254" stroke-width="5.000" stroke-opacity="1.000" stroke-linecap="round" stroke-linejoin="round" d="M 111.377 787.940 Q 112.145 788.032 113.629 788.145 Q 115.112 787.992 124.081 788.127 Q 133.049 788.262 137.837 788.214 Q 142.625 788.165 145.228 788.288 Q 147.832 788.411 149.799 788.689 L 151.555 788.448 "></path>
    <path id="STROKE_bfb44893-b289-4bcb-9f1b-210b7596213c" opacity="1.000" fill="none" stroke="#073254" stroke-width="5.000" stroke-opacity="1.000" stroke-linecap="round" stroke-linejoin="round" d="M 123.658 826.512 Q 124.051 826.601 128.248 826.366 Q 132.446 826.130 135.608 825.741 Q 138.771 825.352 142.029 825.267 Q 145.288 825.181 146.458 825.195 Q 147.629 825.209 151.122 825.827 L 153.050 825.282 "></path>
    <path id="STROKE_54ab7bd9-6f99-48b3-ae63-56ff9527b0fa" opacity="1.000" fill="none" stroke="#073254" stroke-width="5.000" stroke-opacity="1.000" stroke-linecap="round" stroke-linejoin="round" d="M 136.913 866.049 Q 137.461 866.209 140.517 866.392 Q 143.572 866.574 145.581 866.673 Q 147.590 866.772 150.658 866.739 Q 153.725 866.706 170.959 867.396 L 172.751 867.196 "></path>
    <path id="STROKE_3c0daaec-55dd-41c0-a002-42c58c1df3dc" opacity="1.000" fill="none" stroke="#073254" stroke-width="5.000" stroke-opacity="1.000" stroke-linecap="round" stroke-linejoin="round" d="M 146.157 904.252 L 146.708 904.632 Q 148.752 904.998 148.850 904.993 Q 148.948 904.988 150.885 905.273 Q 152.821 905.559 156.682 906.202 Q 160.543 906.846 162.786 907.196 Q 165.028 907.547 166.303 907.788 Q 167.578 908.029 168.116 908.235 Q 168.654 908.441 169.763 908.798 "></path>
    <path id="STROKE_c79a89f4-3b39-473f-9eea-607972aaf256" opacity="1.000" fill="none" stroke="#073254" stroke-width="5.000" stroke-opacity="1.000" stroke-linecap="round" stroke-linejoin="round" d="M -92.121 831.917 Q -92.268 832.317 -92.498 835.479 Q -92.727 838.642 -93.335 845.086 Q -93.942 851.530 -94.418 855.623 Q -94.893 859.716 -95.512 868.817 Q -96.131 877.917 -96.255 883.662 Q -96.378 889.407 -96.336 891.634 Q -96.293 893.862 -96.341 900.601 Q -96.388 907.339 -96.145 911.482 Q -95.902 915.624 -95.452 919.127 Q -95.002 922.629 -94.717 923.797 Q -94.431 924.964 -94.386 925.168 Q -94.341 925.372 -93.819 926.916 Q -93.298 928.461 -92.301 930.319 Q -91.304 932.177 -90.929 932.704 Q -90.555 933.231 -90.150 933.827 Q -89.745 934.423 -88.966 935.373 Q -88.188 936.322 -85.857 938.613 Q -83.526 940.905 -83.100 941.269 Q -82.675 941.633 -82.254 941.921 Q -81.833 942.209 -80.970 942.805 Q -80.107 943.402 -79.264 943.976 Q -78.421 944.550 -77.435 945.114 Q -76.449 945.678 -76.325 945.813 Q -76.202 945.949 -71.620 947.611 Q -67.039 949.273 -63.581 950.152 Q -60.123 951.031 -58.341 951.447 Q -56.558 951.863 -56.275 951.976 Q -55.993 952.089 -53.976 952.604 Q -51.959 953.119 -50.603 953.495 Q -49.246 953.870 -48.306 954.186 Q -47.365 954.502 -46.140 954.860 Q -44.914 955.219 -43.948 955.477 Q -42.981 955.735 -42.806 955.826 Q -42.632 955.916 -37.913 956.996 Q -33.195 958.075 -30.798 958.472 Q -28.401 958.869 -27.564 958.964 Q -26.726 959.059 -24.708 959.288 Q -22.691 959.517 -22.417 959.565 Q -22.144 959.613 -19.969 959.784 Q -17.794 959.954 -15.196 960.130 Q -12.599 960.307 -11.150 960.408 Q -9.702 960.509 -8.826 960.419 Q -7.949 960.328 -6.543 960.190 Q -5.138 960.052 -3.745 959.822 Q -2.353 959.592 -1.694 959.444 Q -1.034 959.296 -0.616 959.173 Q -0.198 959.050 1.246 958.620 Q 2.689 958.190 3.459 957.890 Q 4.228 957.590 5.514 956.992 Q 6.799 956.394 7.448 956.063 Q 8.097 955.731 8.278 955.591 Q 8.460 955.450 9.756 954.599 Q 11.053 953.748 11.911 953.034 Q 12.770 952.321 13.530 951.460 Q 14.290 950.600 14.849 949.781 Q 15.408 948.963 15.821 948.080 Q 16.234 947.196 16.700 945.096 Q 17.167 942.996 17.242 941.410 Q 17.317 939.824 17.233 938.566 Q 17.149 937.307 16.682 934.426 Q 16.215 931.545 15.607 929.056 Q 14.998 926.568 13.673 921.956 Q 12.349 917.344 11.540 914.962 Q 10.731 912.581 9.617 909.773 Q 8.503 906.965 7.941 905.656 Q 7.378 904.346 7.039 903.579 Q 6.700 902.811 4.087 896.888 Q 1.473 890.965 -0.541 886.906 Q -2.555 882.846 -3.960 880.005 Q -5.364 877.165 -7.085 873.835 Q -8.806 870.506 -9.376 869.460 Q -9.947 868.413 -11.068 866.250 Q -12.189 864.086 -13.543 861.708 Q -14.896 859.329 -18.001 854.097 Q -21.106 848.865 -22.472 846.746 Q -23.838 844.627 -25.950 841.330 Q -28.061 838.034 -29.634 835.488 Q -31.208 832.943 -32.209 831.291 Q -33.210 829.640 -34.703 827.338 Q -36.195 825.036 -37.297 823.445 Q -38.399 821.853 -38.888 821.178 Q -39.377 820.503 -39.723 820.054 Q -40.068 819.605 -40.595 818.894 Q -41.122 818.183 -41.555 817.641 Q -41.988 817.098 -42.219 816.846 Q -42.450 816.593 -44.356 813.866 "></path>
    <path id="STROKE_b2352884-1949-4c0f-ab66-42a68115a5e9" opacity="1.000" fill="none" stroke="#073254" stroke-width="5.000" stroke-opacity="1.000" stroke-linecap="round" stroke-linejoin="round" d="M -50.911 839.544 L -50.557 839.464 Q -50.675 839.685 -47.770 845.121 Q -44.864 850.557 -41.521 857.978 Q -38.178 865.398 -36.353 869.756 Q -34.529 874.114 -33.531 876.389 Q -32.532 878.665 -31.865 880.138 Q -31.198 881.611 -30.212 883.677 Q -29.225 885.742 -24.838 896.224 Q -20.452 906.707 -19.800 908.645 Q -19.148 910.583 -18.676 912.183 Q -18.203 913.782 -17.870 915.075 Q -17.537 916.367 -17.370 916.916 Q -17.203 917.465 -16.620 918.988 "></path>
    <path id="STROKE_41bddc51-2216-400c-8154-1949d9ed421d" opacity="1.000" fill="none" stroke="#073254" stroke-width="5.000" stroke-opacity="1.000" stroke-linecap="round" stroke-linejoin="round" d="M -65.013 845.630 Q -65.047 845.984 -62.885 855.522 Q -60.723 865.060 -59.320 871.335 Q -57.918 877.609 -57.095 881.221 Q -56.273 884.834 -54.076 893.417 Q -51.878 902.001 -50.141 907.310 Q -48.404 912.620 -47.570 915.313 Q -46.737 918.006 -46.391 919.744 Q -46.566 919.994 -46.792 920.675 "></path>
    <path id="STROKE_244e3e76-e159-45b3-82bb-3f5f05ef2418" opacity="1.000" fill="none" stroke="#073254" stroke-width="5.000" stroke-opacity="1.000" stroke-linecap="round" stroke-linejoin="round" d="M -76.972 859.079 L -76.901 859.537 L -77.077 860.736 Q -77.125 861.132 -77.479 866.150 Q -77.834 871.167 -77.552 882.636 Q -77.271 894.105 -76.967 900.295 Q -76.663 906.485 -76.157 909.319 Q -76.026 909.445 -75.558 910.205 "></path>
    <path id="STROKE_80420ee4-0a85-47d5-a5fd-4b86d896eac0" opacity="1.000" fill="none" stroke="#073254" stroke-width="5.000" stroke-opacity="1.000" stroke-linecap="round" stroke-linejoin="round" d="M -70.946 592.915 L -70.109 592.690 Q -69.526 592.287 -68.802 591.885 Q -68.078 591.484 -67.766 591.309 Q -67.455 591.134 -67.031 590.960 Q -66.607 590.786 -65.966 590.556 Q -65.325 590.325 -64.788 590.171 Q -64.251 590.017 -63.602 589.901 Q -62.953 589.784 -62.725 589.790 Q -62.497 589.797 -62.113 589.767 Q -61.730 589.737 -61.171 589.839 Q -60.612 589.942 -59.750 590.167 Q -58.888 590.393 -58.253 590.625 Q -57.618 590.858 -57.209 591.099 Q -56.800 591.339 -56.334 591.643 Q -55.868 591.946 -55.345 592.312 Q -54.822 592.678 -54.375 593.046 Q -53.927 593.414 -53.554 593.783 Q -53.182 594.153 -52.796 594.610 Q -52.410 595.068 -52.011 595.613 Q -51.611 596.159 -51.223 596.842 Q -50.835 597.526 -50.458 598.348 Q -50.081 599.169 -49.810 600.061 Q -49.539 600.952 -49.375 601.913 Q -49.210 602.874 -49.148 603.618 Q -49.086 604.362 -49.149 605.153 Q -49.212 605.943 -49.408 606.621 Q -49.603 607.299 -49.869 607.892 Q -50.134 608.486 -50.535 609.221 Q -50.935 609.955 -51.370 610.599 Q -51.805 611.242 -52.275 611.795 Q -52.744 612.347 -53.131 612.757 Q -53.519 613.166 -53.823 613.433 Q -54.127 613.700 -54.777 614.089 Q -55.426 614.477 -56.420 614.987 Q -57.414 615.497 -58.220 615.844 Q -59.026 616.191 -59.645 616.374 Q -60.263 616.558 -61.118 616.687 Q -61.973 616.815 -63.064 616.888 Q -64.155 616.962 -65.183 616.878 Q -66.212 616.794 -67.178 616.552 Q -68.144 616.311 -68.924 616.004 Q -69.703 615.697 -70.296 615.325 Q -70.888 614.954 -71.399 614.560 Q -71.910 614.167 -72.555 613.544 Q -73.200 612.921 -73.839 612.061 Q -74.479 611.201 -74.817 610.583 Q -75.156 609.965 -75.379 609.446 Q -75.603 608.927 -75.825 608.301 Q -76.048 607.676 -76.195 607.209 Q -76.342 606.743 -76.450 606.284 Q -76.558 605.824 -76.644 604.946 Q -76.730 604.067 -76.699 603.193 Q -76.669 602.320 -76.550 601.157 Q -76.431 599.995 -76.309 599.184 Q -76.187 598.373 -75.999 597.682 Q -75.811 596.992 -75.751 596.739 Q -75.691 596.486 -75.159 595.488 Q -74.626 594.490 -74.226 594.036 Q -73.826 593.582 -73.414 593.124 Q -73.003 592.667 -72.447 592.056 Q -71.891 591.444 -71.473 591.019 Q -71.054 590.593 -70.632 590.233 Q -70.210 589.873 -69.788 589.587 Q -69.366 589.301 -68.683 588.991 Q -67.999 588.681 -67.286 588.474 Q -66.573 588.266 -66.034 588.223 Q -65.495 588.179 -64.686 588.143 Q -63.877 588.106 -62.876 588.121 Q -61.875 588.135 -61.016 588.366 Q -60.158 588.597 -59.588 588.834 Q -59.019 589.071 -58.452 589.390 Q -57.885 589.710 -57.328 590.089 Q -56.772 590.469 -56.226 590.909 Q -55.680 591.349 -55.248 591.761 Q -54.816 592.172 -54.339 592.746 Q -53.861 593.319 -53.608 593.849 Q -53.354 594.380 -53.130 594.912 Q -52.905 595.444 -52.625 596.154 Q -52.345 596.865 -52.228 597.679 Q -52.110 598.493 -52.063 599.130 Q -52.016 599.766 -52.000 600.496 Q -51.984 601.226 -51.992 601.870 Q -52.000 602.513 -52.048 603.347 Q -52.096 604.182 -52.257 604.947 Q -52.418 605.712 -52.638 606.373 Q -52.859 607.034 -53.278 607.870 Q -53.698 608.706 -54.450 609.674 Q -54.826 610.157 -55.464 610.699 Q -56.102 611.240 -57.003 611.839 Q -57.904 612.438 -58.837 612.870 Q -59.769 613.302 -60.734 613.567 Q -61.698 613.832 -62.565 613.936 Q -63.432 614.039 -64.202 613.980 Q -64.973 613.920 -65.530 613.841 Q -66.087 613.762 -66.603 613.616 Q -67.119 613.470 -67.887 613.043 Q -68.655 612.616 -69.510 611.936 Q -70.366 611.257 -70.792 610.722 Q -71.217 610.187 -71.261 610.150 Q -71.305 610.114 -71.469 609.808 Q -71.633 609.503 -71.933 608.916 Q -72.233 608.329 -72.426 607.881 Q -72.620 607.433 -72.750 606.968 Q -72.881 606.504 -72.977 605.886 Q -73.073 605.269 -73.153 604.439 Q -73.233 603.609 -73.237 602.877 Q -73.241 602.146 -73.127 601.212 Q -73.012 600.279 -72.756 599.510 Q -72.499 598.742 -72.211 598.227 Q -71.923 597.713 -71.664 597.312 Q -71.405 596.912 -71.038 596.512 Q -70.672 596.113 -70.080 595.645 Q -69.488 595.177 -69.027 594.906 Q -68.565 594.636 -68.101 594.463 Q -67.637 594.289 -67.006 594.182 Q -66.376 594.075 -65.680 594.080 Q -64.983 594.084 -64.016 594.153 Q -63.048 594.222 -62.283 594.327 Q -61.518 594.431 -60.669 594.651 Q -59.820 594.871 -59.327 595.072 Q -58.833 595.272 -58.360 595.432 Q -57.886 595.592 -57.146 596.281 Q -56.406 596.969 -55.970 597.548 Q -55.534 598.126 -55.153 598.829 Q -54.772 599.533 -54.557 600.385 Q -54.341 601.238 -54.289 602.243 Q -54.237 603.247 -54.314 604.094 Q -54.390 604.941 -54.593 605.633 Q -54.796 606.325 -55.126 606.971 Q -55.456 607.616 -55.913 608.216 Q -56.371 608.815 -56.800 609.268 Q -57.229 609.722 -57.630 610.030 Q -58.031 610.338 -58.579 610.624 Q -59.126 610.911 -59.819 611.176 Q -60.511 611.439 -61.224 611.570 Q -61.937 611.701 -62.668 611.697 Q -63.398 611.693 -63.995 611.612 Q -64.592 611.531 -65.058 611.375 Q -65.523 611.219 -65.990 610.905 Q -66.457 610.590 -66.913 610.114 Q -67.369 609.638 -67.629 609.324 Q -67.890 609.011 -67.975 608.866 Q -68.060 608.721 -68.067 608.060 Q -68.074 607.398 -67.939 606.220 Q -67.804 605.042 -67.389 603.973 Q -66.974 602.904 -66.324 601.991 Q -65.675 601.079 -65.192 600.542 Q -64.708 600.006 -64.349 599.769 Q -63.989 599.532 -63.450 599.340 Q -62.911 599.148 -62.245 599.050 Q -61.579 598.952 -61.094 598.999 Q -60.609 599.045 -60.102 599.314 Q -59.595 599.583 -59.372 600.014 Q -59.149 600.445 -59.090 601.393 Q -59.032 602.340 -59.315 603.198 Q -59.599 604.057 -59.899 604.549 Q -60.199 605.042 -60.361 605.343 Q -60.523 605.644 -60.847 605.942 Q -61.172 606.241 -61.721 606.651 Q -62.269 607.061 -62.827 607.324 Q -63.384 607.587 -64.238 607.774 Q -65.092 607.961 -65.413 607.975 Q -65.734 607.989 -66.455 607.904 Q -67.176 607.819 -67.700 607.615 Q -68.224 607.410 -68.696 607.062 Q -69.168 606.714 -69.715 606.111 Q -70.263 605.508 -70.515 604.958 Q -70.767 604.407 -70.768 603.675 Q -70.770 602.943 -70.538 602.485 Q -70.306 602.027 -70.005 601.610 Q -69.704 601.194 -69.254 600.646 Q -68.805 600.098 -68.529 599.757 Q -68.253 599.416 -68.103 599.266 Q -67.953 599.116 -66.643 598.312 Q -65.661 598.281 -65.179 598.462 Q -64.613 598.327 -63.977 598.341 Q -63.340 598.355 -62.662 598.542 Q -61.983 598.730 -61.516 599.016 Q -61.048 599.302 -60.632 599.805 Q -60.217 600.308 -60.032 601.034 Q -59.848 601.760 -59.893 602.373 Q -59.937 602.986 -60.442 603.867 Q -60.947 604.748 -61.890 605.141 Q -62.832 605.535 -63.324 605.483 Q -63.816 605.432 -64.431 604.911 Q -65.045 604.391 -65.271 603.713 Q -65.498 603.036 -65.524 602.581 Q -65.550 602.126 -65.449 601.569 Q -65.348 601.012 -65.084 600.247 Q -64.819 599.483 -64.321 598.854 Q -63.823 598.226 -63.078 597.819 Q -62.332 597.412 -61.686 597.304 Q -61.039 597.196 -60.279 597.325 Q -59.519 597.455 -58.820 597.780 Q -58.122 598.105 -57.945 598.281 Q -57.768 598.457 -57.643 598.775 Q -57.518 599.092 -57.316 599.887 Q -57.113 600.682 -57.008 601.939 Q -56.902 603.196 -56.964 604.069 Q -57.025 604.941 -57.128 605.519 Q -57.252 606.077 -57.457 606.695 Q -57.662 607.312 -57.960 607.902 Q -58.259 608.492 -58.735 609.003 Q -59.212 609.513 -59.878 609.679 "></path>
    <path id="STROKE_0bbb14c9-4c2d-4d14-9f74-e064a95fcac9" opacity="1.000" fill="none" stroke="#073254" stroke-width="5.000" stroke-opacity="1.000" stroke-linecap="round" stroke-linejoin="round" d="M -114.175 475.445 L -114.473 475.895 L -114.866 475.826 L -115.031 476.088 Q -115.126 476.187 -118.262 476.996 Q -121.399 477.805 -123.153 478.150 Q -124.908 478.494 -126.691 478.957 Q -128.475 479.419 -129.661 479.819 Q -130.847 480.219 -131.873 480.731 Q -132.899 481.243 -134.939 482.764 L -135.043 483.110 L -134.990 484.247 Q -134.811 484.813 -134.809 484.951 Q -134.807 485.088 -134.267 486.077 Q -133.728 487.066 -133.164 487.725 Q -132.599 488.384 -132.283 488.779 Q -131.967 489.174 -130.319 491.137 Q -128.672 493.100 -128.598 493.172 Q -128.524 493.244 -127.369 496.443 Q -127.764 496.730 -128.523 497.269 Q -129.281 497.809 -129.913 498.163 Q -130.545 498.516 -131.324 498.909 Q -132.103 499.301 -132.767 499.627 Q -133.431 499.952 -134.111 500.342 Q -134.791 500.731 -135.593 501.150 Q -136.395 501.570 -136.900 501.928 Q -137.406 502.286 -138.696 503.278 Q -139.986 504.270 -140.322 504.765 Q -140.658 505.260 -140.906 505.696 Q -141.154 506.132 -141.151 506.428 Q -141.147 506.724 -138.989 509.408 Q -136.831 512.093 -134.710 513.890 Q -132.589 515.686 -131.117 517.665 L -131.509 518.363 Q -131.483 518.551 -134.041 519.900 Q -136.600 521.249 -144.427 525.940 L -144.606 526.634 L -144.626 527.368 Q -144.314 528.587 -143.200 530.211 Q -142.085 531.835 -138.447 537.499 L -139.819 538.267 Q -140.432 538.501 -142.061 538.981 Q -143.690 539.461 -144.671 539.763 Q -145.651 540.064 -146.350 540.331 Q -147.048 540.599 -147.505 540.781 Q -147.961 540.963 -148.453 541.288 Q -148.944 541.613 -149.495 542.274 L -149.534 542.854 Q -149.495 543.076 -148.563 544.488 Q -147.630 545.900 -145.995 547.570 Q -144.360 549.240 -143.771 549.707 Q -143.182 550.173 -139.884 554.880 Q -141.339 555.738 -142.862 556.279 Q -144.385 556.820 -144.880 556.938 Q -145.375 557.056 -146.604 557.321 Q -147.833 557.586 -148.918 557.929 Q -150.004 558.271 -151.572 558.848 Q -153.044 559.921 -152.973 560.085 Q -152.902 560.250 -152.477 560.969 Q -152.051 561.688 -150.784 562.760 Q -149.517 563.831 -147.942 565.204 Q -146.368 566.577 -145.332 569.110 Q -145.976 569.550 -148.445 570.722 Q -150.914 571.895 -152.520 572.616 Q -154.127 573.336 -155.004 573.844 Q -155.882 574.352 -156.020 574.414 Q -156.159 574.477 -156.883 575.151 Q -157.607 575.825 -157.442 576.288 Q -157.015 577.271 -154.474 579.504 Q -151.933 581.738 -150.659 582.891 Q -149.384 584.044 -148.852 584.858 Q -148.319 585.671 -148.024 586.538 Q -149.700 588.559 -149.754 588.607 Q -149.808 588.656 -155.422 594.863 Q -153.219 598.507 -151.598 599.802 Q -149.977 601.097 -148.796 601.939 Q -147.616 602.781 -146.094 603.845 "></path>
    <path id="STROKE_296e4986-06f3-4e77-b7b7-f21f3e3529ff" opacity="1.000" fill="none" stroke="#073254" stroke-width="5.000" stroke-opacity="1.000" stroke-linecap="round" stroke-linejoin="round" d="M 19.892 681.443 L 19.264 679.280 Q 17.082 676.443 16.107 675.631 Q 15.132 674.819 14.520 674.463 Q 13.908 674.106 13.514 673.960 Q 13.120 673.814 12.855 673.682 Q 12.590 673.550 10.565 673.125 Q 8.540 672.700 7.072 672.757 Q 5.603 672.814 4.961 672.956 Q 4.319 673.099 3.434 673.583 Q 2.548 674.068 1.153 675.315 Q -0.242 676.563 -1.356 678.490 Q -2.471 680.418 -3.036 683.282 Q -3.601 686.147 -3.648 688.574 Q -3.695 691.001 -3.575 692.210 Q -3.455 693.420 -3.327 694.110 Q -3.199 694.800 -2.578 697.124 "></path>
    <path id="STROKE_83e27abb-506a-4f36-acf0-74054d8d977e" opacity="1.000" fill="none" stroke="#073254" stroke-width="5.000" stroke-opacity="1.000" stroke-linecap="round" stroke-linejoin="round" d="M -58.244 715.328 L -58.319 715.149 Q -61.347 710.240 -62.677 708.716 Q -64.008 707.192 -64.810 706.558 Q -65.613 705.924 -66.340 705.514 Q -67.068 705.104 -68.635 704.544 Q -70.202 703.985 -70.715 703.888 Q -71.227 703.792 -72.809 703.557 Q -74.392 703.323 -76.494 703.774 Q -78.597 704.225 -80.325 705.330 Q -82.054 706.436 -82.543 706.917 Q -83.033 707.399 -83.346 707.758 Q -83.659 708.117 -84.958 710.410 Q -86.258 712.702 -88.380 723.469 Q -88.344 723.815 -88.383 724.769 "></path>
    <path id="STROKE_47141e3d-1bd5-41d0-9778-ba05fb2e7b57" opacity="1.000" fill="none" stroke="#073254" stroke-width="5.000" stroke-opacity="1.000" stroke-linecap="round" stroke-linejoin="round" d="M -149.726 726.774 L -149.675 726.128 Q -151.502 719.423 -152.497 717.146 Q -153.493 714.870 -154.683 713.131 Q -155.873 711.392 -157.351 710.097 Q -158.830 708.803 -160.625 707.912 Q -162.420 707.022 -164.407 706.976 Q -166.394 706.929 -167.961 707.595 Q -169.528 708.261 -170.257 708.823 Q -170.986 709.386 -172.235 710.778 Q -173.485 712.170 -175.018 715.120 Q -176.551 718.069 -177.315 720.788 Q -178.079 723.506 -178.397 726.104 Q -178.714 728.702 -178.696 730.022 Q -178.679 731.342 -178.648 731.681 Q -178.618 732.020 -178.432 732.491 Q -178.247 732.962 -177.345 735.062 "></path>
    <path id="STROKE_565f7c1b-afec-41cc-9cf9-d2c0c8f630f0" opacity="1.000" fill="none" stroke="#073254" stroke-width="5.000" stroke-opacity="1.000" stroke-linecap="round" stroke-linejoin="round" d="M -115.044 760.483 Q -115.121 760.279 -113.750 758.971 Q -113.723 758.922 -114.039 757.238 Q -114.355 755.554 -116.490 753.808 Q -118.624 752.062 -120.110 751.476 Q -121.596 750.889 -123.456 750.600 Q -125.315 750.310 -126.922 750.642 Q -128.529 750.973 -129.977 751.750 Q -131.425 752.527 -133.167 754.114 Q -134.909 755.701 -137.047 759.527 Q -139.185 763.353 -140.252 771.158 Q -140.206 771.634 -139.722 772.136 "></path>
    <path id="STROKE_979cea9e-0824-450a-a534-732ee2efae5f" opacity="1.000" fill="none" stroke="#073254" stroke-width="5.000" stroke-opacity="1.000" stroke-linecap="round" stroke-linejoin="round" d="M -201.152 728.492 L -201.380 728.137 Q -201.570 727.523 -202.294 725.813 Q -203.019 724.103 -203.781 723.146 Q -204.543 722.190 -206.259 721.048 Q -207.975 719.907 -209.219 719.535 Q -210.463 719.163 -211.361 719.115 Q -212.259 719.066 -213.982 720.292 Q -215.705 721.517 -216.884 723.465 Q -218.062 725.414 -218.508 728.056 Q -218.954 730.697 -218.848 732.266 Q -218.743 733.836 -218.716 733.942 Q -218.689 734.048 -218.800 734.627 "></path>
    <path id="STROKE_0d4b3b4d-505f-4fa4-8e2c-adcdb33a31cc" opacity="1.000" fill="none" stroke="#073254" stroke-width="5.000" stroke-opacity="1.000" stroke-linecap="round" stroke-linejoin="round" d="M -171.893 787.740 L -171.729 786.732 Q -172.006 784.681 -172.914 782.379 Q -173.822 780.077 -176.108 777.412 Q -178.395 774.748 -180.356 773.288 Q -182.317 771.828 -185.112 770.614 Q -187.907 769.400 -190.617 769.357 Q -193.327 769.315 -195.828 770.341 Q -198.329 771.367 -200.020 773.174 Q -201.711 774.981 -202.945 777.972 Q -204.180 780.963 -204.431 782.879 Q -204.682 784.795 -204.665 785.591 Q -204.647 786.386 -204.569 786.735 Q -204.490 787.084 -204.359 787.165 L -203.887 787.502 "></path>
    <path id="STROKE_28370497-f47a-4eca-8410-a1f1150fac27" opacity="1.000" fill="none" stroke="#073254" stroke-width="5.000" stroke-opacity="1.000" stroke-linecap="round" stroke-linejoin="round" d="M -0.038 742.949 L 0.112 742.141 Q -0.136 740.858 -1.302 738.625 Q -2.468 736.391 -3.620 735.093 Q -4.773 733.795 -7.289 732.310 Q -9.805 730.825 -11.723 730.427 Q -13.640 730.029 -14.676 730.042 Q -15.712 730.054 -17.383 730.689 Q -19.054 731.324 -20.106 732.080 Q -21.158 732.836 -21.917 733.640 Q -22.676 734.444 -23.010 734.805 Q -23.343 735.165 -24.949 738.147 Q -26.556 741.130 -27.490 745.879 Q -28.424 750.627 -28.412 753.017 Q -28.401 755.407 -28.274 756.485 Q -28.148 757.562 -27.589 759.998 "></path>
    <path id="STROKE_d4eb2800-81f2-45c3-bee6-e35fdb774807" opacity="1.000" fill="none" stroke="#073254" stroke-width="5.000" stroke-opacity="1.000" stroke-linecap="round" stroke-linejoin="round" d="M -44.279 788.146 Q -44.200 787.595 -44.208 787.071 Q -44.215 786.547 -45.011 784.264 Q -45.808 781.981 -47.803 779.390 Q -49.798 776.799 -51.255 775.743 Q -52.712 774.688 -54.692 774.014 Q -56.672 773.341 -58.622 773.648 Q -60.573 773.954 -62.312 774.995 Q -64.051 776.035 -65.050 777.126 Q -66.048 778.217 -66.727 779.403 Q -67.407 780.589 -67.985 781.911 Q -68.564 783.233 -69.237 785.711 Q -69.910 788.188 -70.105 792.744 Q -70.300 797.300 -69.691 800.691 L -68.690 802.499 "></path>
    <path id="STROKE_bece7a2a-2086-43aa-b976-d126023b8e8c" opacity="1.000" fill="none" stroke="#073254" stroke-width="5.000" stroke-opacity="1.000" stroke-linecap="round" stroke-linejoin="round" d="M -122.766 825.694 L -123.039 825.384 Q -123.436 824.635 -124.926 822.913 Q -126.416 821.191 -129.063 819.361 Q -131.711 817.530 -134.348 816.465 Q -136.986 815.400 -139.290 814.947 Q -141.594 814.495 -143.584 814.634 Q -145.574 814.774 -146.002 814.885 Q -146.431 814.995 -148.248 815.857 Q -150.065 816.718 -152.096 818.628 Q -154.127 820.539 -155.536 822.653 Q -156.944 824.768 -157.760 826.387 Q -158.575 828.007 -159.637 830.654 L -159.597 830.788 L -160.009 831.975 "></path>
    <path id="STROKE_16e15914-0b67-4dc3-ad18-522bcfafedc6" opacity="1.000" fill="none" stroke="#073254" stroke-width="5.000" stroke-opacity="1.000" stroke-linecap="round" stroke-linejoin="round" d="M -174.049 855.111 Q -174.050 854.993 -173.927 853.821 Q -173.886 853.595 -175.649 850.420 Q -177.411 847.246 -181.013 843.481 Q -184.615 839.716 -187.173 837.976 Q -189.730 836.237 -191.714 835.476 Q -193.697 834.715 -194.917 834.532 Q -196.137 834.349 -196.826 834.428 Q -197.515 834.507 -197.899 834.615 Q -198.284 834.724 -199.492 835.100 Q -200.701 835.477 -203.078 837.285 Q -205.455 839.092 -206.548 840.349 Q -207.641 841.606 -208.268 842.495 Q -208.894 843.383 -210.643 846.449 Q -212.391 849.515 -213.479 854.201 Q -213.371 854.326 -212.886 854.584 "></path>
    <path id="STROKE_c1bc790c-3130-4a67-a898-6d2c150d8311" opacity="1.000" fill="none" stroke="#073254" stroke-width="5.000" stroke-opacity="1.000" stroke-linecap="round" stroke-linejoin="round" d="M -123.391 888.490 L -122.839 887.099 Q -122.712 886.826 -123.445 883.229 Q -124.178 879.632 -126.544 875.861 Q -128.909 872.089 -130.764 870.306 Q -132.618 868.522 -135.294 867.224 Q -137.970 865.925 -141.260 866.560 Q -144.550 867.194 -146.264 868.200 Q -147.978 869.205 -150.200 871.594 Q -152.422 873.984 -155.653 886.062 L -155.516 887.566 "></path>
    <path id="STROKE_e7ecf52f-fce3-4a67-bf20-dba15b7a70ad" opacity="1.000" fill="none" stroke="#073254" stroke-width="5.000" stroke-opacity="1.000" stroke-linecap="round" stroke-linejoin="round" d="M -190.360 911.521 L -190.151 910.945 Q -190.081 910.689 -190.653 907.879 Q -191.224 905.069 -192.635 902.579 Q -194.045 900.090 -196.211 898.543 Q -198.378 896.997 -200.078 896.596 Q -201.779 896.195 -202.835 896.161 Q -203.891 896.127 -205.857 897.361 Q -207.823 898.596 -209.767 902.627 Q -211.712 906.659 -212.920 913.563 Q -212.750 913.656 -212.425 914.345 "></path>
    <path id="STROKE_c4df6b46-a968-4c52-9f24-17b20969254f" opacity="1.000" fill="none" stroke="#073254" stroke-width="5.000" stroke-opacity="1.000" stroke-linecap="round" stroke-linejoin="round" d="M 76.924 727.658 Q 76.904 727.490 76.830 726.736 Q 76.756 725.982 76.564 725.087 Q 76.372 724.192 75.024 721.781 Q 73.676 719.369 71.460 717.414 Q 69.245 715.460 66.738 714.591 Q 64.231 713.722 62.810 713.599 Q 61.390 713.477 59.779 713.733 Q 58.167 713.989 56.381 715.056 Q 54.595 716.122 52.638 719.307 Q 50.680 722.491 50.109 724.963 Q 49.538 727.434 49.465 729.521 Q 49.392 731.608 50.252 734.439 Q 50.362 734.477 50.839 734.628 "></path>
    <path id="STROKE_de6ce78e-ec3f-45d3-ae59-3a48bb61dbd7" opacity="1.000" fill="none" stroke="#073254" stroke-width="5.000" stroke-opacity="1.000" stroke-linecap="round" stroke-linejoin="round" d="M 67.386 769.947 Q 67.291 768.956 67.165 768.017 Q 67.039 767.079 65.233 764.922 Q 63.427 762.764 61.215 761.464 Q 59.003 760.163 55.567 759.424 Q 52.131 758.685 49.603 758.874 Q 47.074 759.064 45.538 759.480 Q 44.001 759.896 41.790 761.269 Q 39.579 762.641 37.485 765.301 Q 35.392 767.961 34.406 770.592 Q 33.421 773.222 32.974 776.466 Q 32.526 779.710 32.707 782.057 Q 32.887 784.403 33.096 785.249 Q 33.305 786.094 33.503 786.655 Q 33.702 787.215 34.542 789.144 "></path>
    <path id="STROKE_74805567-b5bb-4cc0-9fe0-63f124ddbe44" opacity="1.000" fill="none" stroke="#073254" stroke-width="5.000" stroke-opacity="1.000" stroke-linecap="round" stroke-linejoin="round" d="M 15.330 815.773 L 15.173 815.177 Q 15.114 815.009 14.750 814.579 Q 14.386 814.149 13.764 813.353 Q 13.142 812.557 12.339 811.701 Q 11.535 810.845 9.487 809.216 Q 7.440 807.587 4.227 806.312 Q 1.014 805.037 -0.825 804.925 Q -2.664 804.814 -3.493 804.930 Q -4.322 805.047 -5.364 805.743 Q -6.407 806.439 -7.399 807.759 Q -8.391 809.078 -8.773 810.019 Q -9.155 810.959 -9.403 811.691 Q -9.651 812.423 -9.966 816.326 Q -10.281 820.228 -8.070 827.172 Q -8.007 827.204 -6.954 825.525 "></path>
    <path id="STROKE_a8647e22-db29-41e4-9fd4-a8731538683c" opacity="1.000" fill="none" stroke="#073254" stroke-width="5.000" stroke-opacity="1.000" stroke-linecap="round" stroke-linejoin="round" d="M 89.383 811.620 Q 89.304 811.463 89.191 810.676 Q 89.077 809.890 88.960 809.354 Q 88.842 808.818 88.256 807.579 Q 87.669 806.341 87.198 805.691 Q 86.727 805.040 85.742 803.952 Q 84.757 802.864 82.070 801.615 Q 79.384 800.367 77.991 800.110 Q 76.599 799.854 74.386 800.181 Q 72.172 800.509 70.059 801.964 Q 67.945 803.419 66.711 805.379 Q 65.476 807.338 65.089 808.375 Q 64.702 809.413 64.240 811.065 Q 63.779 812.718 63.191 816.976 "></path>
    <path id="STROKE_4f61dc0d-6852-4ce9-b057-9b7635951b8f" opacity="1.000" fill="none" stroke="#073254" stroke-width="5.000" stroke-opacity="1.000" stroke-linecap="round" stroke-linejoin="round" d="M 59.816 854.396 L 59.840 853.694 Q 59.435 852.301 58.196 850.273 Q 56.956 848.245 53.850 846.038 Q 50.744 843.832 48.327 843.070 Q 45.909 842.308 44.587 842.277 Q 43.264 842.247 42.722 842.268 Q 42.180 842.290 40.570 843.058 Q 38.961 843.826 37.565 845.156 Q 36.169 846.486 35.825 846.859 Q 35.481 847.232 33.639 851.644 Q 31.797 856.056 31.054 865.084 L 31.109 866.252 "></path>
    <path id="STROKE_9d5cc815-3175-4632-8c4b-a4e90c6e9cb9" opacity="1.000" fill="none" stroke="#073254" stroke-width="5.000" stroke-opacity="1.000" stroke-linecap="round" stroke-linejoin="round" d="M 47.115 912.410 Q 47.056 912.197 46.865 911.079 Q 46.611 910.652 44.542 909.209 Q 42.473 907.767 39.939 907.275 Q 37.405 906.784 36.250 906.908 Q 35.094 907.031 33.868 907.619 Q 32.641 908.207 31.861 908.846 Q 31.080 909.486 29.698 912.360 Q 28.315 915.235 28.031 921.807 Q 28.205 921.885 28.530 922.595 "></path>
    <path id="STROKE_dde19f87-9ddb-49d9-b86e-fd521e804316" opacity="1.000" fill="none" stroke="#073254" stroke-width="5.000" stroke-opacity="1.000" stroke-linecap="round" stroke-linejoin="round" d="M 117.600 860.659 L 117.599 860.233 Q 117.262 858.645 117.065 858.074 Q 116.868 857.503 116.693 856.950 Q 116.518 856.396 114.986 854.552 Q 113.455 852.708 112.224 851.839 Q 110.994 850.970 110.345 850.633 Q 109.696 850.296 108.561 849.906 Q 107.426 849.515 105.364 849.147 Q 103.302 848.779 100.473 849.144 Q 97.644 849.509 95.706 850.483 Q 93.769 851.457 92.103 853.954 Q 90.437 856.451 89.647 859.023 Q 88.858 861.595 88.343 864.601 Q 87.828 867.606 87.722 868.626 Q 87.615 869.645 87.548 870.276 Q 87.480 870.906 87.371 873.032 "></path>
    <path id="STROKE_c1e7bc04-72c1-45bc-ac4f-3e7cdf2cf7ba" opacity="1.000" fill="none" stroke="#073254" stroke-width="5.000" stroke-opacity="1.000" stroke-linecap="round" stroke-linejoin="round" d="M 113.129 908.463 L 113.037 907.958 Q 112.799 907.355 111.442 905.426 Q 110.086 903.496 108.321 902.168 Q 106.556 900.841 104.181 900.245 Q 101.807 899.649 99.453 900.075 Q 97.100 900.500 95.233 901.788 Q 93.366 903.076 92.196 904.654 Q 91.027 906.232 89.649 910.158 Q 88.272 914.084 87.122 920.127 L 86.587 922.069 "></path>
    <path id="STROKE_cafeef55-0a96-41f3-b886-92b14ab87bee" opacity="1.000" fill="none" stroke="#073254" stroke-width="5.000" stroke-opacity="1.000" stroke-linecap="round" stroke-linejoin="round" d="M -101.263 951.092 Q -101.188 950.984 -100.289 949.844 Q -100.402 949.268 -101.329 947.861 Q -102.256 946.455 -104.314 945.021 Q -106.372 943.587 -107.484 943.071 Q -108.597 942.555 -111.274 941.890 Q -113.952 941.225 -115.643 941.249 Q -117.335 941.272 -118.879 941.869 Q -120.422 942.465 -121.261 943.136 Q -122.099 943.807 -123.995 947.150 Q -125.892 950.493 -127.511 956.750 Q -127.495 956.773 -128.188 957.110 "></path>
    <path id="STROKE_fd40a954-4bc5-4b45-9d43-652f358bb3e9" opacity="1.000" fill="none" stroke="#073254" stroke-width="5.000" stroke-opacity="1.000" stroke-linecap="round" stroke-linejoin="round" d="M -160.701 944.665 L -160.650 943.916 Q -160.656 943.643 -161.796 942.005 Q -162.936 940.368 -163.973 939.492 Q -165.010 938.615 -168.042 937.891 Q -171.075 937.166 -173.354 937.331 Q -175.632 937.496 -176.750 937.968 Q -177.868 938.439 -178.690 939.078 Q -179.513 939.717 -180.957 942.360 Q -182.402 945.003 -182.710 948.724 Q -182.625 948.886 -182.586 949.713 "></path>
    <path id="STROKE_e5455682-5d52-4f67-995e-e6d445c5c7e8" opacity="1.000" fill="none" stroke="#073254" stroke-width="5.000" stroke-opacity="1.000" stroke-linecap="round" stroke-linejoin="round" d="M 57.356 956.058 Q 57.202 955.757 57.087 955.428 L 56.813 955.122 Q 56.080 954.631 54.906 953.872 Q 53.732 953.112 51.103 952.192 Q 48.474 951.272 46.282 951.222 Q 44.091 951.171 42.315 951.590 Q 40.540 952.009 38.167 953.552 Q 35.795 955.095 31.135 963.196 Q 31.159 963.327 30.855 963.855 "></path>
  </g>
</svg>