<?xml version="1.0" encoding="UTF-8" standalone="no"?>
<svg
   width="15.999999"
   height="18.646"
   version="1.1"
   viewBox="-237.351 461.569 21.999521 25.637159"
   id="svg1"
   sodipodi:docname="pez.svg"
   inkscape:version="1.3 (0e150ed, 2023-07-21)"
   inkscape:export-filename="pez.svg"
   inkscape:export-xdpi="96"
   inkscape:export-ydpi="96"
   xmlns:inkscape="http://www.inkscape.org/namespaces/inkscape"
   xmlns:sodipodi="http://sodipodi.sourceforge.net/DTD/sodipodi-0.dtd"
   xmlns="http://www.w3.org/2000/svg"
   xmlns:svg="http://www.w3.org/2000/svg"
   xmlns:rdf="http://www.w3.org/1999/02/22-rdf-syntax-ns#"
   xmlns:cc="http://creativecommons.org/ns#"
   xmlns:dc="http://purl.org/dc/elements/1.1/">
  <sodipodi:namedview
     id="namedview1"
     pagecolor="#ffffff"
     bordercolor="#000000"
     borderopacity="0.25"
     inkscape:showpageshadow="2"
     inkscape:pageopacity="0.0"
     inkscape:pagecheckerboard="0"
     inkscape:deskcolor="#d1d1d1"
     inkscape:document-units="cm"
     inkscape:zoom="15.663863"
     inkscape:cx="6.2883592"
     inkscape:cy="5.4903441"
     inkscape:window-width="1392"
     inkscape:window-height="1027"
     inkscape:window-x="0"
     inkscape:window-y="25"
     inkscape:window-maximized="0"
     inkscape:current-layer="Nueva_capa_8"
     showguides="false" />
  <!--
	Exported with Concepts: Smarter Sketching
	Version: 2024.04.6 on Android 13
	https://concepts.app/
	-->
  <title
     id="title1">Dibujo 3</title>
  <desc
     id="desc1">Drawing exported from Concepts: Smarter Sketching</desc>
  <defs
     id="defs1" />
  <g
     id="Nueva_capa_8"
     opacity="1"
     transform="matrix(0.04971119,0,0,0.04971119,-225.84726,438.37698)"
     style="fill:none;stroke:#073254;stroke-width:5.22693;stroke-dasharray:none;stroke-opacity:1">
    <path
       id="STROKE_f036875a-5823-4d2e-b7cf-b36fe2830806"
       opacity="1"
       fill="none"
       stroke="#073254"
       stroke-width="5"
       stroke-opacity="1"
       stroke-linecap="round"
       stroke-linejoin="round"
       d="m -226.445,940.09739 c -3.96212,-55.36102 4.21882,-110.69756 3.39425,-166.1205 2.45332,-46.29694 -3.07458,-92.59821 0.29075,-138.9125 1.91673,-26.87141 0.52861,-54.52224 7.30619,-80.73287 13.0639,-6.91584 26.05046,20.67532 38.47381,26.42287 11.20764,9.44716 20.83333,20.49009 30.941,31.042"
       style="fill:none;stroke:#073254;stroke-width:5.22693;stroke-dasharray:none;stroke-opacity:1" />
    <path
       id="STROKE_5845ee7f-9b07-423a-bc15-4d2dc0e48a67"
       opacity="1"
       fill="none"
       stroke="#073254"
       stroke-width="5"
       stroke-opacity="1"
       stroke-linecap="round"
       stroke-linejoin="round"
       d="m -146.466,611.44039 c 15.05755,-43.26896 20.07888,-89.39157 32.127,-133.5175 8.51719,-22.25493 37.411382,12.91572 48.349,18.0355"
       style="fill:none;stroke:#073254;stroke-width:5.22693;stroke-dasharray:none;stroke-opacity:1" />
    <path
       id="STROKE_cf5ea60e-b6f3-4f84-8d11-566b49657498"
       opacity="1"
       fill="none"
       stroke="#073254"
       stroke-width="5"
       stroke-opacity="1"
       stroke-linecap="round"
       stroke-linejoin="round"
       d="m -56.537,485.00039 c -13.168205,6.88856 -5.192897,26.46819 -3.278,37.669 10.820573,42.31814 38.137797,78.06042 68.665,108.29 13.379109,11.01361 28.273685,26.33483 46.95,25.164 12.113871,-6.44137 6.661185,-22.75209 2.012,-32.388 11.910494,-13.30798 23.195815,-28.43413 25.238,-47.041 5.329799,-27.07082 -2.709155,-57.9006 -25.161,-74.998 -24.980803,-10.80126 -57.15856747,-18.46132 -80.624,0.177 -8.425851,9.14958 -15.328592,-0.0999 -18.629,-8.324 -6.360519,-7.69467 -19.126882,-12.73404 -22.668,0.184"
       style="fill:#073254;fill-opacity:1;stroke:#073254;stroke-width:5.22693;stroke-dasharray:none;stroke-opacity:1" />
    <path
       id="STROKE_2f176dd3-9044-4bf3-948d-bd77f5fd740e"
       opacity="1"
       fill="none"
       stroke="#073254"
       stroke-width="5"
       stroke-opacity="1"
       stroke-linecap="round"
       stroke-linejoin="round"
       d="m 72.744729,604.35527 c -20.35488,-14.88203 -49.472,-55.521 -49.472,-55.521 0,0 -32.7663415,-34.18798 -30.1814215,-55.80955 l -19.2968815,11.445 c 3.04456,29.90282 32.0080632,60.46468 32.0080632,60.46468 0,0 37.4552498,44.35383 55.4262398,53.13087 z"
       style="fill:#ffffff;fill-opacity:1;stroke:#073254;stroke-width:5.22693;stroke-dasharray:none;stroke-opacity:1"
       sodipodi:nodetypes="ccccccc" />
    <path
       id="STROKE_b014e09b-ec2f-497d-b468-c94278703079"
       opacity="1"
       fill="none"
       stroke="#073254"
       stroke-width="5"
       stroke-opacity="1"
       stroke-linecap="round"
       stroke-linejoin="round"
       d="m 64.293,645.12439 c 48.37013,37.67956 74.13481,95.43407 100.326,149.203 18.57585,43.9989 34.83244,89.17693 45.408,135.79"
       style="fill:none;stroke:#073254;stroke-width:5.22693;stroke-dasharray:none;stroke-opacity:1" />
    <path
       id="STROKE_c4bbf918-00de-42d1-8862-bcd8acf51a74"
       opacity="1"
       fill="none"
       stroke="#073254"
       stroke-width="5"
       stroke-opacity="1"
       stroke-linecap="round"
       stroke-linejoin="round"
       d="m 48.286,655.98839 c 28.431298,40.23549 48.432775,86.00473 63.25025,132.92025 14.73447,44.16735 26.20554,89.58645 34.05775,135.49075 -0.40168,3.36565 1.89628,7.38898 0.001,10.557"
       style="fill:none;stroke:#073254;stroke-width:5.22693;stroke-dasharray:none;stroke-opacity:1" />
    <path
       id="STROKE_5bd5890d-e249-4a17-9439-c2601e6d502f"
       opacity="1"
       fill="none"
       stroke="#073254"
       stroke-width="5"
       stroke-opacity="1"
       stroke-linecap="round"
       stroke-linejoin="round"
       d="m -226.954,938.31939 c 43.12432,27.27541 95.26938,34.93477 145.04725,41.19225 34.894086,1.78306 70.131612,2.31889 104.93975,-1.01025 41.225827,-6.98279 81.98018,-19.37604 118.947,-38.909 l 1.992,-1.475 3.483,-3.043"
       style="fill:none;stroke:#073254;stroke-width:5.22693;stroke-dasharray:none;stroke-opacity:1" />
    <path
       id="STROKE_aac7f9e2-8d71-479d-af91-39673444a60c"
       opacity="1"
       fill="none"
       stroke="#073254"
       stroke-width="5"
       stroke-opacity="1"
       stroke-linecap="round"
       stroke-linejoin="round"
       d="m 146.651,931.05139 c 15.02101,16.58065 42.17419,9.00466 59.769,0.953 l 2.588,-1.721"
       style="fill:none;stroke:#073254;stroke-width:5.22693;stroke-dasharray:none;stroke-opacity:1" />
    <path
       id="STROKE_4f1655c8-a81f-4891-a5ba-6e9a494cfb20"
       opacity="1"
       fill="none"
       stroke="#073254"
       stroke-width="5"
       stroke-opacity="1"
       stroke-linecap="round"
       stroke-linejoin="round"
       d="m 71.582,685.25139 c 4.307187,-1.04288 8.625229,-2.18458 12.9,-3.399"
       style="fill:none;stroke:#073254;stroke-width:5.22693;stroke-dasharray:none;stroke-opacity:1" />
    <path
       id="STROKE_239ff924-c6fd-4c3b-8907-70b93af32949"
       opacity="1"
       fill="none"
       stroke="#073254"
       stroke-width="5"
       stroke-opacity="1"
       stroke-linecap="round"
       stroke-linejoin="round"
       d="m 84.63,716.08139 c 8.5442,-1.69313 18.21238,-1.30509 26.154,-3.622"
       style="fill:none;stroke:#073254;stroke-width:5.22693;stroke-dasharray:none;stroke-opacity:1" />
    <path
       id="STROKE_ebb9eb6b-f410-458b-804a-d0daf950a96e"
       opacity="1"
       fill="none"
       stroke="#073254"
       stroke-width="5"
       stroke-opacity="1"
       stroke-linecap="round"
       stroke-linejoin="round"
       d="m 99.692,748.84739 c 7.90556,0.37315 16.07496,-0.21523 24.066,-0.087"
       style="fill:none;stroke:#073254;stroke-width:5.22693;stroke-dasharray:none;stroke-opacity:1" />
    <path
       id="STROKE_9be3ac6c-9fd3-4ddb-9412-845618529eb2"
       opacity="1"
       fill="none"
       stroke="#073254"
       stroke-width="5"
       stroke-opacity="1"
       stroke-linecap="round"
       stroke-linejoin="round"
       d="m 111.377,786.69139 c 13.36465,0.37069 26.85137,0.14027 40.178,0.508"
       style="fill:none;stroke:#073254;stroke-width:5.22693;stroke-dasharray:none;stroke-opacity:1" />
    <path
       id="STROKE_bfb44893-b289-4bcb-9f1b-210b7596213c"
       opacity="1"
       fill="none"
       stroke="#073254"
       stroke-width="5"
       stroke-opacity="1"
       stroke-linecap="round"
       stroke-linejoin="round"
       d="m 123.658,825.26339 c 9.80675,-0.52608 19.73546,-1.53151 29.392,-1.23"
       style="fill:none;stroke:#073254;stroke-width:5.22693;stroke-dasharray:none;stroke-opacity:1" />
    <path
       id="STROKE_54ab7bd9-6f99-48b3-ae63-56ff9527b0fa"
       opacity="1"
       fill="none"
       stroke="#073254"
       stroke-width="5"
       stroke-opacity="1"
       stroke-linecap="round"
       stroke-linejoin="round"
       d="m 136.913,864.80039 c 11.89919,0.8509 23.9278,1.04219 35.838,1.147"
       style="fill:none;stroke:#073254;stroke-width:5.22693;stroke-dasharray:none;stroke-opacity:1" />
    <path
       id="STROKE_3c0daaec-55dd-41c0-a002-42c58c1df3dc"
       opacity="1"
       fill="none"
       stroke="#073254"
       stroke-width="5"
       stroke-opacity="1"
       stroke-linecap="round"
       stroke-linejoin="round"
       d="m 146.157,903.00339 c 7.59554,2.13691 16.00381,2.07034 23.606,4.546"
       style="fill:none;stroke:#073254;stroke-width:5.22693;stroke-dasharray:none;stroke-opacity:1" />
    <path
       id="STROKE_c79a89f4-3b39-473f-9eea-607972aaf256"
       opacity="1"
       fill="none"
       stroke="#073254"
       stroke-width="5"
       stroke-opacity="1"
       stroke-linecap="round"
       stroke-linejoin="round"
       d="m -92.121,830.66839 c -2.670279,31.47975 -7.492841,63.67049 -1.698,94.999 8.805523,22.80384 35.849746,23.71503 55.906,30.08 17.5204,3.39074 41.9122696,8.47899 53.734,-8.916 4.372086,-22.8556 -9.5051067,-44.59874 -18.22375,-64.92925 -11.932592,-24.21071 -26.03098,-47.5025 -41.95325,-69.28475"
       style="fill:none;stroke:#073254;stroke-width:5.22693;stroke-dasharray:none;stroke-opacity:1" />
    <path
       id="STROKE_b2352884-1949-4c0f-ab66-42a68115a5e9"
       opacity="1"
       fill="none"
       stroke="#073254"
       stroke-width="5"
       stroke-opacity="1"
       stroke-linecap="round"
       stroke-linejoin="round"
       d="m -50.911,838.29539 c 12.965807,25.05746 25.258011,52.25997 34.291,79.444"
       style="fill:none;stroke:#073254;stroke-width:5.22693;stroke-dasharray:none;stroke-opacity:1" />
    <path
       id="STROKE_41bddc51-2216-400c-8154-1949d9ed421d"
       opacity="1"
       fill="none"
       stroke="#073254"
       stroke-width="5"
       stroke-opacity="1"
       stroke-linecap="round"
       stroke-linejoin="round"
       d="m -65.013,844.38139 c 4.956585,25.22207 11.847519,50.55985 18.221,75.045"
       style="fill:none;stroke:#073254;stroke-width:5.22693;stroke-dasharray:none;stroke-opacity:1" />
    <path
       id="STROKE_244e3e76-e159-45b3-82bb-3f5f05ef2418"
       opacity="1"
       fill="none"
       stroke="#073254"
       stroke-width="5"
       stroke-opacity="1"
       stroke-linecap="round"
       stroke-linejoin="round"
       d="m -76.972,857.83039 c -1.001407,16.87838 -1.325979,34.57471 1.414,51.126"
       style="fill:none;stroke:#073254;stroke-width:5.22693;stroke-dasharray:none;stroke-opacity:1" />
    <circle
       style="fill:#073254;fill-opacity:1;stroke:none;stroke-width:224.986;stroke-linecap:round;stroke-linejoin:round;paint-order:markers fill stroke"
       id="path1"
       cx="-63.474155"
       cy="601.3783"
       r="17.168324" />
    <path
       id="STROKE_0bbb14c9-4c2d-4d14-9f74-e064a95fcac9-5"
       opacity="1"
       fill="none"
       stroke="#073254"
       stroke-width="5"
       stroke-opacity="1"
       stroke-linecap="round"
       stroke-linejoin="round"
       d="m -113.86707,473.67201 c -2.78109,1.88601 -7.27295,2.09323 -10.7354,3.08738 -3.32854,1.06315 -8.76784,1.59612 -10.09395,5.15201 0.77162,5.14627 6.76144,7.6021 7.65019,12.76478 -4.27851,3.39781 -10.36836,4.53337 -13.53619,9.25546 0.92903,4.50683 6.02468,7.44205 9.01194,10.99122 1.48541,3.65924 -6.77347,4.54862 -8.94943,7.11644 -5.21064,0.95301 -4.00042,5.38957 -1.1682,8.19336 1.79581,2.74489 5.6816,6.70369 -0.0518,6.98465 -3.47803,0.68178 -10.73882,2.9149 -5.39387,6.98238 2.06023,2.75161 7.51997,6.40375 6.83875,9.32494 -3.80714,2.38159 -9.05814,1.61998 -12.35647,4.79457 1.5291,3.48108 11.89703,8.30423 4.52956,10.63482 -2.72725,1.80571 -12.13188,3.56843 -7.16757,7.74201 2.23308,2.92839 10.18131,6.21434 5.85881,10.14129 -2.92857,3.2595 -8.00411,6.73712 -2.6909,10.40081 1.91495,1.84969 4.19899,3.28242 6.35084,4.8362"
       style="fill:none;stroke:#073254;stroke-width:5.22693;stroke-dasharray:none;stroke-opacity:1" />
    <path
       id="STROKE_296e4986-06f3-4e77-b7b7-f21f3e3529ff"
       opacity="1"
       fill="none"
       stroke="#073254"
       stroke-width="5"
       stroke-opacity="1"
       stroke-linecap="round"
       stroke-linejoin="round"
       d="m 19.892,680.19439 c -9.001797,-20.29749 -30.763317,-1.23714 -22.47,15.681"
       style="fill:none;stroke:#073254;stroke-width:5.22693;stroke-dasharray:none;stroke-opacity:1" />
    <path
       id="STROKE_83e27abb-506a-4f36-acf0-74054d8d977e"
       opacity="1"
       fill="none"
       stroke="#073254"
       stroke-width="5"
       stroke-opacity="1"
       stroke-linecap="round"
       stroke-linejoin="round"
       d="m -58.244,714.07939 c -7.620031,-20.31108 -33.178546,-11.28921 -30.139,9.441"
       style="fill:none;stroke:#073254;stroke-width:5.22693;stroke-dasharray:none;stroke-opacity:1" />
    <path
       id="STROKE_47141e3d-1bd5-41d0-9778-ba05fb2e7b57"
       opacity="1"
       fill="none"
       stroke="#073254"
       stroke-width="5"
       stroke-opacity="1"
       stroke-linecap="round"
       stroke-linejoin="round"
       d="m -149.726,725.52539 c -3.80197,-31.67311 -34.00381,-21.41009 -27.619,8.288"
       style="fill:none;stroke:#073254;stroke-width:5.22693;stroke-dasharray:none;stroke-opacity:1" />
    <path
       id="STROKE_565f7c1b-afec-41cc-9cf9-d2c0c8f630f0"
       opacity="1"
       fill="none"
       stroke="#073254"
       stroke-width="5"
       stroke-opacity="1"
       stroke-linecap="round"
       stroke-linejoin="round"
       d="m -115.044,759.23439 c 0.64633,-21.38506 -30.51743,-4.3943 -24.678,11.653"
       style="fill:none;stroke:#073254;stroke-width:5.22693;stroke-dasharray:none;stroke-opacity:1" />
    <path
       id="STROKE_979cea9e-0824-450a-a534-732ee2efae5f"
       opacity="1"
       fill="none"
       stroke="#073254"
       stroke-width="5"
       stroke-opacity="1"
       stroke-linecap="round"
       stroke-linejoin="round"
       d="m -201.152,727.24339 c -5.06329,-15.79493 -20.04201,-9.0049 -17.648,6.135"
       style="fill:none;stroke:#073254;stroke-width:5.22693;stroke-dasharray:none;stroke-opacity:1" />
    <path
       id="STROKE_0d4b3b4d-505f-4fa4-8e2c-adcdb33a31cc"
       opacity="1"
       fill="none"
       stroke="#073254"
       stroke-width="5"
       stroke-opacity="1"
       stroke-linecap="round"
       stroke-linejoin="round"
       d="m -171.893,786.49139 c -0.58863,-21.33869 -36.24743,-25.87188 -31.994,-0.238"
       style="fill:none;stroke:#073254;stroke-width:5.22693;stroke-dasharray:none;stroke-opacity:1" />
    <path
       id="STROKE_28370497-f47a-4eca-8410-a1f1150fac27"
       opacity="1"
       fill="none"
       stroke="#073254"
       stroke-width="5"
       stroke-opacity="1"
       stroke-linecap="round"
       stroke-linejoin="round"
       d="m -0.038,741.70039 c -9.9344302,-29.29303 -35.202066,-2.35287 -27.551,17.049"
       style="fill:none;stroke:#073254;stroke-width:5.22693;stroke-dasharray:none;stroke-opacity:1" />
    <path
       id="STROKE_d4eb2800-81f2-45c3-bee6-e35fdb774807"
       opacity="1"
       fill="none"
       stroke="#073254"
       stroke-width="5"
       stroke-opacity="1"
       stroke-linecap="round"
       stroke-linejoin="round"
       d="m -44.279,786.89739 c -7.586207,-30.88208 -34.121862,-5.7517 -24.411,14.353"
       style="fill:none;stroke:#073254;stroke-width:5.22693;stroke-dasharray:none;stroke-opacity:1" />
    <path
       id="STROKE_bece7a2a-2086-43aa-b976-d126023b8e8c"
       opacity="1"
       fill="none"
       stroke="#073254"
       stroke-width="5"
       stroke-opacity="1"
       stroke-linecap="round"
       stroke-linejoin="round"
       d="m -122.766,824.44539 c -10.98347,-15.80898 -32.72595,-14.72646 -37.243,6.281"
       style="fill:none;stroke:#073254;stroke-width:5.22693;stroke-dasharray:none;stroke-opacity:1" />
    <path
       id="STROKE_16e15914-0b67-4dc3-ad18-522bcfafedc6"
       opacity="1"
       fill="none"
       stroke="#073254"
       stroke-width="5"
       stroke-opacity="1"
       stroke-linecap="round"
       stroke-linejoin="round"
       d="m -174.049,853.86239 c -6.86632,-23.54585 -35.57746,-29.08494 -38.837,-0.527"
       style="fill:none;stroke:#073254;stroke-width:5.22693;stroke-dasharray:none;stroke-opacity:1" />
    <path
       id="STROKE_c1bc790c-3130-4a67-a898-6d2c150d8311"
       opacity="1"
       fill="none"
       stroke="#073254"
       stroke-width="5"
       stroke-opacity="1"
       stroke-linecap="round"
       stroke-linejoin="round"
       d="m -123.391,887.24139 c 1.33375,-26.28545 -31.70507,-30.57193 -32.125,-0.924"
       style="fill:none;stroke:#073254;stroke-width:5.22693;stroke-dasharray:none;stroke-opacity:1" />
    <path
       id="STROKE_e7ecf52f-fce3-4a67-bf20-dba15b7a70ad"
       opacity="1"
       fill="none"
       stroke="#073254"
       stroke-width="5"
       stroke-opacity="1"
       stroke-linecap="round"
       stroke-linejoin="round"
       d="m -190.36,910.27239 c -1.13227,-22.27664 -24.08968,-17.85661 -22.065,2.824"
       style="fill:none;stroke:#073254;stroke-width:5.22693;stroke-dasharray:none;stroke-opacity:1" />
    <path
       id="STROKE_c4df6b46-a968-4c52-9f24-17b20969254f"
       opacity="1"
       fill="none"
       stroke="#073254"
       stroke-width="5"
       stroke-opacity="1"
       stroke-linecap="round"
       stroke-linejoin="round"
       d="m 76.924,726.40939 c -2.811999,-22.82588 -35.030501,-13.9415 -26.085,6.97"
       style="fill:none;stroke:#073254;stroke-width:5.22693;stroke-dasharray:none;stroke-opacity:1" />
    <path
       id="STROKE_de6ce78e-ec3f-45d3-ae59-3a48bb61dbd7"
       opacity="1"
       fill="none"
       stroke="#073254"
       stroke-width="5"
       stroke-opacity="1"
       stroke-linecap="round"
       stroke-linejoin="round"
       d="m 67.386,768.69839 c -8.538518,-23.85177 -43.351114,-4.81198 -33.883,16.708 l 1.039,2.489"
       style="fill:none;stroke:#073254;stroke-width:5.22693;stroke-dasharray:none;stroke-opacity:1" />
    <path
       id="STROKE_74805567-b5bb-4cc0-9fe0-63f124ddbe44"
       opacity="1"
       fill="none"
       stroke="#073254"
       stroke-width="5"
       stroke-opacity="1"
       stroke-linecap="round"
       stroke-linejoin="round"
       d="m 15.33,814.52439 c -12.6665169,-22.0151 -34.703664,-5.22759 -22.284,9.752"
       style="fill:none;stroke:#073254;stroke-width:5.22693;stroke-dasharray:none;stroke-opacity:1" />
    <path
       id="STROKE_a8647e22-db29-41e4-9fd4-a8731538683c"
       opacity="1"
       fill="none"
       stroke="#073254"
       stroke-width="5"
       stroke-opacity="1"
       stroke-linecap="round"
       stroke-linejoin="round"
       d="m 89.383,810.37139 c -3.40796,-18.58899 -27.549936,-12.41407 -26.192,5.356"
       style="fill:none;stroke:#073254;stroke-width:5.22693;stroke-dasharray:none;stroke-opacity:1" />
    <path
       id="STROKE_4f61dc0d-6852-4ce9-b057-9b7635951b8f"
       opacity="1"
       fill="none"
       stroke="#073254"
       stroke-width="5"
       stroke-opacity="1"
       stroke-linecap="round"
       stroke-linejoin="round"
       d="m 59.816,853.14739 c -8.976595,-23.15847 -32.379623,-8.52813 -28.707,11.856"
       style="fill:none;stroke:#073254;stroke-width:5.22693;stroke-dasharray:none;stroke-opacity:1" />
    <path
       id="STROKE_9d5cc815-3175-4632-8c4b-a4e90c6e9cb9"
       opacity="1"
       fill="none"
       stroke="#073254"
       stroke-width="5"
       stroke-opacity="1"
       stroke-linecap="round"
       stroke-linejoin="round"
       d="m 47.115,911.16139 c -7.693308,-12.70553 -22.215082,-1.98456 -18.585,10.185"
       style="fill:none;stroke:#073254;stroke-width:5.22693;stroke-dasharray:none;stroke-opacity:1" />
    <path
       id="STROKE_dde19f87-9ddb-49d9-b86e-fd521e804316"
       opacity="1"
       fill="none"
       stroke="#073254"
       stroke-width="5"
       stroke-opacity="1"
       stroke-linecap="round"
       stroke-linejoin="round"
       d="m 117.6,859.41039 c -7.1977,-23.26189 -34.330509,-8.22845 -30.229,12.373"
       style="fill:none;stroke:#073254;stroke-width:5.22693;stroke-dasharray:none;stroke-opacity:1" />
    <path
       id="STROKE_c1e7bc04-72c1-45bc-ac4f-3e7cdf2cf7ba"
       opacity="1"
       fill="none"
       stroke="#073254"
       stroke-width="5"
       stroke-opacity="1"
       stroke-linecap="round"
       stroke-linejoin="round"
       d="m 113.129,907.21439 c -11.36938,-20.14654 -26.324835,-1.56766 -26.542,13.606"
       style="fill:none;stroke:#073254;stroke-width:5.22693;stroke-dasharray:none;stroke-opacity:1" />
    <path
       id="STROKE_cafeef55-0a96-41f3-b886-92b14ab87bee"
       opacity="1"
       fill="none"
       stroke="#073254"
       stroke-width="5"
       stroke-opacity="1"
       stroke-linecap="round"
       stroke-linejoin="round"
       d="m -101.263,949.84339 c -3.16933,-16.02008 -26.84305,-10.64388 -26.925,6.018"
       style="fill:none;stroke:#073254;stroke-width:5.22693;stroke-dasharray:none;stroke-opacity:1" />
    <path
       id="STROKE_fd40a954-4bc5-4b45-9d43-652f358bb3e9"
       opacity="1"
       fill="none"
       stroke="#073254"
       stroke-width="5"
       stroke-opacity="1"
       stroke-linecap="round"
       stroke-linejoin="round"
       d="m -160.701,943.41639 c -3.51236,-12.12277 -24.32235,-8.81166 -21.885,5.048"
       style="fill:none;stroke:#073254;stroke-width:5.22693;stroke-dasharray:none;stroke-opacity:1" />
    <path
       id="STROKE_e5455682-5d52-4f67-995e-e6d445c5c7e8"
       opacity="1"
       fill="none"
       stroke="#073254"
       stroke-width="5"
       stroke-opacity="1"
       stroke-linecap="round"
       stroke-linejoin="round"
       d="m 57.356,954.80939 c -8.788798,-9.72198 -22.911499,-3.73304 -26.501,7.797"
       style="fill:none;stroke:#073254;stroke-width:5.22693;stroke-dasharray:none;stroke-opacity:1" />
  </g>
  <metadata
     id="metadata1">
    <rdf:RDF>
      <cc:Work
         rdf:about="">
        <dc:title>Dibujo 3</dc:title>
      </cc:Work>
    </rdf:RDF>
  </metadata>
</svg>
